<svg width="64" height="64" viewBox="0 0 64 64" fill="none" xmlns="http://www.w3.org/2000/svg">
<g clip-path="url(#clip0_8851_1768)">
<path d="M49.333 45.3333C49.1631 45.3332 48.9947 45.3006 48.837 45.2373L35.5037 39.904C35.2556 39.8058 35.0428 39.6354 34.8928 39.4147C34.7428 39.1941 34.6626 38.9334 34.6626 38.6666C34.6626 38.3999 34.7428 38.1392 34.8928 37.9186C35.0428 37.6979 35.2556 37.5275 35.5037 37.4293L48.837 32.096C49.1544 31.968 49.509 31.968 49.8264 32.096L63.1597 37.4293C63.409 37.5262 63.6232 37.696 63.7743 37.9166C63.9254 38.1372 64.0065 38.3983 64.0068 38.6657C64.007 38.9332 63.9266 39.1944 63.7759 39.4154C63.6253 39.6363 63.4114 39.8066 63.1624 39.904L49.829 45.2373C49.6713 45.3006 49.503 45.3332 49.333 45.3333ZM39.5917 38.6666L49.333 42.5627L59.0744 38.6666L49.333 34.7706L39.5917 38.6666Z" fill="white"/>
<path d="M49.3332 61.3334C49.1632 61.3333 48.9949 61.3007 48.8372 61.2374L35.5038 55.904C35.2565 55.8053 35.0444 55.6346 34.8951 55.414C34.7459 55.1934 34.6662 54.9331 34.6665 54.6667V38.6667C34.6665 38.3131 34.807 37.9739 35.057 37.7239C35.3071 37.4738 35.6462 37.3334 35.9998 37.3334C36.3535 37.3334 36.6926 37.4738 36.9426 37.7239C37.1927 37.9739 37.3332 38.3131 37.3332 38.6667V53.7654L49.3332 58.5654L61.3332 53.7654V38.6667C61.3332 38.3131 61.4736 37.9739 61.7237 37.7239C61.9737 37.4738 62.3129 37.3334 62.6665 37.3334C63.0201 37.3334 63.3593 37.4738 63.6093 37.7239C63.8594 37.9739 63.9998 38.3131 63.9998 38.6667V54.6667C64.0001 54.9331 63.9205 55.1934 63.7712 55.414C63.6219 55.6346 63.4099 55.8053 63.1625 55.904L49.8292 61.2374C49.6715 61.3007 49.5031 61.3333 49.3332 61.3334Z" fill="white"/>
<path d="M49.3332 61.3333C48.9796 61.3333 48.6404 61.1928 48.3904 60.9428C48.1403 60.6927 47.9999 60.3536 47.9999 60V44C47.9999 43.6464 48.1403 43.3072 48.3904 43.0572C48.6404 42.8071 48.9796 42.6666 49.3332 42.6666C49.6868 42.6666 50.026 42.8071 50.276 43.0572C50.5261 43.3072 50.6665 43.6464 50.6665 44V60C50.6665 60.3536 50.5261 60.6927 50.276 60.9428C50.026 61.1928 49.6868 61.3333 49.3332 61.3333ZM14.6665 45.3333C14.4966 45.3332 14.3282 45.3006 14.1705 45.2373L0.837189 39.904C0.589109 39.8058 0.376262 39.6354 0.226276 39.4147C0.0762912 39.1941 -0.00390625 38.9334 -0.00390625 38.6666C-0.00390625 38.3999 0.0762912 38.1392 0.226276 37.9186C0.376262 37.6979 0.589109 37.5275 0.837189 37.4293L14.1705 32.096C14.4879 31.968 14.8425 31.968 15.1599 32.096L28.4932 37.4293C28.7425 37.5262 28.9567 37.696 29.1078 37.9166C29.2589 38.1372 29.34 38.3983 29.3402 38.6657C29.3405 38.9332 29.2601 39.1944 29.1094 39.4154C28.9588 39.6363 28.7449 39.8066 28.4959 39.904L15.1625 45.2373C15.0048 45.3006 14.8365 45.3332 14.6665 45.3333ZM4.92519 38.6666L14.6665 42.5627L24.4079 38.6666L14.6665 34.7706L4.92519 38.6666Z" fill="white"/>
<path d="M14.6667 61.3334C14.4967 61.3333 14.3284 61.3007 14.1707 61.2374L0.837334 55.904C0.589957 55.8053 0.377909 55.6346 0.228627 55.414C0.0793456 55.1934 -0.000298377 54.9331 8.40017e-07 54.6667V38.6667C8.40017e-07 38.3131 0.140477 37.9739 0.390525 37.7239C0.640574 37.4738 0.979712 37.3334 1.33333 37.3334C1.68696 37.3334 2.02609 37.4738 2.27614 37.7239C2.52619 37.9739 2.66667 38.3131 2.66667 38.6667V53.7654L14.6667 58.5654L26.6667 53.7654V38.6667C26.6667 38.3131 26.8071 37.9739 27.0572 37.7239C27.3072 37.4738 27.6464 37.3334 28 37.3334C28.3536 37.3334 28.6928 37.4738 28.9428 37.7239C29.1929 37.9739 29.3333 38.3131 29.3333 38.6667V54.6667C29.3336 54.9331 29.254 55.1934 29.1047 55.414C28.9554 55.6346 28.7434 55.8053 28.496 55.904L15.1627 61.2374C15.005 61.3007 14.8366 61.3333 14.6667 61.3334Z" fill="white"/>
<path d="M14.6663 61.3334C14.3127 61.3334 13.9736 61.1929 13.7235 60.9428C13.4735 60.6928 13.333 60.3536 13.333 60V44C13.333 43.6464 13.4735 43.3073 13.7235 43.0572C13.9736 42.8072 14.3127 42.6667 14.6663 42.6667C15.02 42.6667 15.3591 42.8072 15.6092 43.0572C15.8592 43.3073 15.9997 43.6464 15.9997 44V60C15.9997 60.3536 15.8592 60.6928 15.6092 60.9428C15.3591 61.1929 15.02 61.3334 14.6663 61.3334ZM31.9997 18.6667C31.8297 18.6666 31.6614 18.634 31.5037 18.5707L18.1703 13.2374C17.9223 13.1392 17.7094 12.9687 17.5594 12.7481C17.4094 12.5275 17.3292 12.2668 17.3292 12C17.3292 11.7332 17.4094 11.4726 17.5594 11.252C17.7094 11.0313 17.9223 10.8608 18.1703 10.7627L31.5037 5.42936C31.821 5.30138 32.1756 5.30138 32.493 5.42936L45.8263 10.7627C46.0756 10.8595 46.2898 11.0294 46.441 11.25C46.5921 11.4706 46.6731 11.7317 46.6734 11.9991C46.6737 12.2665 46.5932 12.5278 46.4426 12.7487C46.2919 12.9697 46.0781 13.14 45.829 13.2374L32.4957 18.5707C32.338 18.634 32.1696 18.6666 31.9997 18.6667ZM22.2583 12L31.9997 15.896L41.741 12L31.9997 8.10402L22.2583 12Z" fill="white"/>
<path d="M31.9997 34.6667C31.8297 34.6667 31.6614 34.6341 31.5037 34.5707L18.1703 29.2374C17.923 29.1387 17.7109 28.9679 17.5616 28.7474C17.4124 28.5268 17.3327 28.2664 17.333 28.0001V12.0001C17.333 11.6465 17.4735 11.3073 17.7235 11.0573C17.9736 10.8072 18.3127 10.6667 18.6663 10.6667C19.02 10.6667 19.3591 10.8072 19.6092 11.0573C19.8592 11.3073 19.9997 11.6465 19.9997 12.0001V27.0987L31.9997 31.8987L43.9997 27.0987V12.0001C43.9997 11.6465 44.1402 11.3073 44.3902 11.0573C44.6402 10.8072 44.9794 10.6667 45.333 10.6667C45.6866 10.6667 46.0258 10.8072 46.2758 11.0573C46.5259 11.3073 46.6663 11.6465 46.6663 12.0001V28.0001C46.6666 28.2664 46.587 28.5268 46.4377 28.7474C46.2884 28.9679 46.0764 29.1387 45.829 29.2374L32.4957 34.5707C32.338 34.6341 32.1696 34.6667 31.9997 34.6667Z" fill="white"/>
<path d="M31.9998 34.6667C31.6462 34.6667 31.3071 34.5262 31.057 34.2761C30.807 34.0261 30.6665 33.687 30.6665 33.3333V17.3333C30.6665 16.9797 30.807 16.6406 31.057 16.3905C31.3071 16.1405 31.6462 16 31.9998 16C32.3535 16 32.6926 16.1405 32.9426 16.3905C33.1927 16.6406 33.3332 16.9797 33.3332 17.3333V33.3333C33.3332 33.687 33.1927 34.0261 32.9426 34.2761C32.6926 34.5262 32.3535 34.6667 31.9998 34.6667Z" fill="white"/>
</g>
<defs>
<clipPath id="clip0_8851_1768">
<rect width="64" height="64" fill="white"/>
</clipPath>
</defs>
</svg>
