<svg width="64" height="64" viewBox="0 0 64 64" fill="none" xmlns="http://www.w3.org/2000/svg">
<g clip-path="url(#clip0_7911_7527)">
<path d="M56.1926 12.8076C51.8873 12.8076 48.385 16.3102 48.385 20.6152C48.385 22.69 49.2 24.5768 50.5246 25.9764L43.9786 35.842C43.3209 35.6657 42.643 35.5765 41.9621 35.5765C39.9367 35.5765 38.0891 36.352 36.7003 37.6213L31.8177 32.7387C32.3936 31.6314 32.6939 30.4015 32.693 29.1534C32.693 24.8481 29.1904 21.3457 24.8852 21.3457C20.5799 21.3457 17.0776 24.8483 17.0776 29.1534C17.0776 30.3437 17.3463 31.472 17.8247 32.4825L12.2687 36.9812C10.9617 36.0655 9.40416 35.5749 7.80827 35.5763C3.50257 35.5767 0 39.0793 0 43.3847C0 47.69 3.50257 51.1924 7.80784 51.1924C12.1131 51.1924 15.6155 47.6898 15.6155 43.3847C15.6161 42.3051 15.3915 41.2373 14.9561 40.2494L20.6019 35.6775C21.8725 36.5165 23.3619 36.963 24.8845 36.9616C26.31 36.9634 27.7085 36.5725 28.9265 35.8318L34.4288 41.3341C34.2463 42.0023 34.1538 42.6919 34.1538 43.3845C34.1538 47.6898 37.6564 51.1921 41.9617 51.1921C46.2669 51.1921 49.7693 47.6896 49.7693 43.3845C49.7693 41.3033 48.9491 39.4111 47.6172 38.0102L54.1577 28.1526C54.821 28.3322 55.5051 28.4231 56.1922 28.4231C60.4974 28.4231 64 24.9205 64 20.6152C64.0004 16.3102 60.4979 12.8076 56.1926 12.8076ZM7.80784 46.9614C5.83546 46.9614 4.23092 45.3569 4.23092 43.3847C4.23092 41.4124 5.83546 39.8078 7.80784 39.8078C9.78 39.8078 11.3845 41.4124 11.3845 43.3847C11.3848 45.3567 9.78 46.9614 7.80784 46.9614ZM24.8847 32.7307C22.9126 32.7307 21.3081 31.1262 21.3081 29.1538C21.3081 27.1816 22.9126 25.5771 24.8847 25.5771C26.8571 25.5771 28.4617 27.1816 28.4617 29.1538C28.4617 31.1262 26.8571 32.7307 24.8847 32.7307ZM41.9619 46.9614C39.9895 46.9614 38.385 45.3569 38.385 43.3847C38.385 41.4124 39.9895 39.8078 41.9619 39.8078C43.934 39.8078 45.5386 41.4124 45.5386 43.3847C45.5386 45.3567 43.934 46.9614 41.9619 46.9614ZM56.1926 24.1924C54.2204 24.1924 52.6159 22.5878 52.6159 20.6155C52.6159 18.6433 54.2204 17.0388 56.1926 17.0388C58.165 17.0388 59.7695 18.6433 59.7695 20.6155C59.7695 22.5876 58.1648 24.1924 56.1926 24.1924Z" fill="white"/>
</g>
<defs>
<clipPath id="clip0_7911_7527">
<rect width="64" height="64" fill="white"/>
</clipPath>
</defs>
</svg>
