<svg width="64" height="64" viewBox="0 0 64 64" fill="none" xmlns="http://www.w3.org/2000/svg">
<path d="M7.00187 42.4439H1.375C1.14294 42.4439 0.920376 42.536 0.756282 42.7001C0.592187 42.8642 0.5 43.0868 0.5 43.3189V56.9941C0.5 57.2262 0.592187 57.4487 0.756282 57.6128C0.920376 57.7769 1.14294 57.8691 1.375 57.8691H7.002C7.23406 57.8691 7.45662 57.7769 7.62072 57.6128C7.78481 57.4487 7.877 57.2262 7.877 56.9941V43.3189C7.87697 43.0868 7.78475 42.8642 7.62064 42.7001C7.45652 42.536 7.23395 42.4439 7.00187 42.4439ZM6.12687 56.1191H2.25V44.1939H6.127L6.12687 56.1191ZM17.994 31.7562H12.367C12.1349 31.7562 11.9124 31.8484 11.7483 32.0125C11.5842 32.1766 11.492 32.3992 11.492 32.6312V56.994C11.492 57.226 11.5842 57.4486 11.7483 57.6127C11.9124 57.7768 12.1349 57.869 12.367 57.869H17.994C18.2261 57.869 18.4486 57.7768 18.6127 57.6127C18.7768 57.4486 18.869 57.226 18.869 56.994V32.6312C18.869 32.3992 18.7768 32.1766 18.6127 32.0125C18.4486 31.8484 18.2261 31.7562 17.994 31.7562ZM17.119 56.119H13.242V33.5062H17.119V56.119ZM28.986 38.2064H23.359C23.1269 38.2064 22.9044 38.2985 22.7403 38.4626C22.5762 38.6267 22.484 38.8493 22.484 39.0814V56.9942C22.484 57.2263 22.5762 57.4489 22.7403 57.6129C22.9044 57.777 23.1269 57.8692 23.359 57.8692H28.986C29.2181 57.8692 29.4406 57.777 29.6047 57.6129C29.7688 57.4489 29.861 57.2263 29.861 56.9942V39.0814C29.861 38.8493 29.7688 38.6267 29.6047 38.4626C29.4406 38.2985 29.2181 38.2064 28.986 38.2064ZM28.111 56.1191H24.234V39.9564H28.111V56.1191ZM4.18837 30.8187C5.56687 30.8187 6.68837 29.6972 6.68837 28.3187C6.68837 27.9535 6.60775 27.6072 6.46625 27.2941L14.11 19.8869C14.4441 20.0472 14.8098 20.1306 15.1804 20.131C15.7772 20.131 16.3254 19.9201 16.7557 19.5697L23.7121 23.6517C23.6866 23.7934 23.6734 23.937 23.6726 24.081C23.6726 25.4595 24.7941 26.581 26.1726 26.581C27.5511 26.581 28.6726 25.4595 28.6726 24.081C28.6726 23.5626 28.5139 23.0806 28.2426 22.6809L36.5217 11.044C36.7274 11.0989 36.9421 11.1309 37.1647 11.1309C38.5432 11.1309 39.6647 10.0094 39.6647 8.63086C39.6647 7.25236 38.5432 6.13086 37.1647 6.13086C35.7862 6.13086 34.6647 7.25236 34.6647 8.63086C34.6647 9.14923 34.8235 9.63123 35.0947 10.031L26.8156 21.6679C26.606 21.6109 26.3898 21.5817 26.1726 21.581C25.5757 21.581 25.0276 21.7919 24.5972 22.1421L17.6409 18.0601C17.6652 17.9204 17.6805 17.7775 17.6805 17.6309C17.6805 16.2524 16.559 15.1309 15.1805 15.1309C13.802 15.1309 12.6805 16.2524 12.6805 17.6309C12.6805 17.9866 12.7564 18.3246 12.8909 18.6312L5.23437 26.0509C4.90679 25.8981 4.5498 25.8188 4.18837 25.8185C2.80987 25.8185 1.68837 26.94 1.68837 28.3185C1.6885 29.6972 2.80987 30.8187 4.18837 30.8187ZM37.1646 7.88111C37.5781 7.88111 37.9146 8.21761 37.9146 8.63111C37.9146 9.04461 37.5782 9.38111 37.1646 9.38111C36.751 9.38111 36.4146 9.04473 36.4146 8.63111C36.4146 8.21748 36.751 7.88111 37.1646 7.88111ZM26.1725 23.3312C26.586 23.3312 26.9225 23.6676 26.9225 24.0812C26.9225 24.4949 26.5861 24.8312 26.1725 24.8312C25.7589 24.8312 25.4225 24.4949 25.4225 24.0812C25.4225 23.6676 25.759 23.3312 26.1725 23.3312ZM15.1805 16.8811C15.5941 16.8811 15.9305 17.2176 15.9305 17.6311C15.9305 18.0446 15.5941 18.3811 15.1805 18.3811C14.767 18.3811 14.4305 18.0447 14.4305 17.6311C14.4305 17.2175 14.7669 16.8811 15.1805 16.8811ZM4.18837 27.5687C4.602 27.5687 4.93837 27.9052 4.93837 28.3187C4.93837 28.7322 4.602 29.0687 4.18837 29.0687C3.77487 29.0687 3.43837 28.7324 3.43837 28.3187C3.43837 27.9051 3.77487 27.5687 4.18837 27.5687ZM63.0624 47.0067L60.526 45.5424C60.6867 44.4661 60.6867 43.3719 60.526 42.2956L63.0624 40.8312C63.2633 40.7152 63.41 40.5241 63.47 40.2999C63.5301 40.0758 63.4986 39.837 63.3826 39.636L60.2742 34.252C60.1582 34.051 59.9671 33.9044 59.743 33.8442C59.5188 33.7843 59.28 33.8157 59.079 33.9316L56.5414 35.3967C55.6918 34.7162 54.7442 34.1682 53.7307 33.7712V30.8439C53.7307 30.6118 53.6386 30.3892 53.4745 30.2251C53.3104 30.061 53.0878 29.9689 52.8557 29.9689H46.6387C46.4067 29.9689 46.1841 30.061 46.02 30.2251C45.8559 30.3892 45.7637 30.6118 45.7637 30.8439V33.7712C44.7502 34.1682 43.8026 34.7162 42.9531 35.3967L40.8531 34.1842V23.6312C40.8531 23.3992 40.7609 23.1766 40.5968 23.0125C40.4327 22.8484 40.2102 22.7562 39.9781 22.7562H34.3511C34.1191 22.7562 33.8965 22.8484 33.7324 23.0125C33.5683 23.1766 33.4761 23.3992 33.4761 23.6312V56.9942C33.4761 57.2263 33.5683 57.4489 33.7324 57.6129C33.8965 57.777 34.1191 57.8692 34.3511 57.8692H39.9781C40.2102 57.8692 40.4327 57.777 40.5968 57.6129C40.7609 57.4489 40.8531 57.2263 40.8531 56.9942V53.6537L42.9531 52.4412C43.8027 53.1217 44.7502 53.6698 45.7637 54.0667V56.9941C45.7637 57.2262 45.8559 57.4487 46.02 57.6128C46.1841 57.7769 46.4067 57.8691 46.6387 57.8691H52.8557C53.0878 57.8691 53.3104 57.7769 53.4745 57.6128C53.6386 57.4487 53.7307 57.2262 53.7307 56.9941V54.0667C54.7442 53.6698 55.6918 53.1217 56.5414 52.4412L59.0789 53.9064C59.1784 53.9639 59.2882 54.0012 59.4022 54.0162C59.5161 54.0312 59.6319 54.0236 59.7429 53.9939C59.8539 53.9641 59.9579 53.9128 60.0491 53.8428C60.1402 53.7728 60.2167 53.6855 60.2741 53.586L63.3825 48.2021C63.44 48.1026 63.4773 47.9927 63.4923 47.8788C63.5073 47.7649 63.4997 47.6491 63.47 47.5381C63.4403 47.4271 63.389 47.3231 63.319 47.2319C63.2491 47.1407 63.1619 47.0642 63.0624 47.0067ZM39.1031 56.1191H35.2261V24.5062H39.1031V34.455L36.1119 39.636C35.9958 39.837 35.9644 40.0758 36.0245 40.2999C36.0845 40.5241 36.2312 40.7152 36.4321 40.8312L38.9685 42.2956C38.8078 43.3719 38.8078 44.4661 38.9685 45.5424L36.4321 47.0067C36.3326 47.0642 36.2454 47.1407 36.1754 47.2319C36.1054 47.323 36.0541 47.4271 36.0244 47.5381C35.9947 47.6491 35.9871 47.7649 36.0021 47.8788C36.0171 47.9927 36.0544 48.1026 36.1119 48.2021L39.1031 53.383V56.1191ZM59.1962 51.9532L56.8832 50.6177C56.7234 50.5254 56.5383 50.486 56.3547 50.5052C56.1711 50.5244 55.9982 50.6012 55.8609 50.7246C54.903 51.5855 53.8009 52.2229 52.5849 52.6191C52.4093 52.6763 52.2563 52.7876 52.1478 52.937C52.0393 53.0864 51.9809 53.2663 51.9809 53.451V56.1189H47.5139V53.451C47.5139 53.0722 47.2701 52.7364 46.9099 52.6191C45.6937 52.2229 44.5916 51.5854 43.6339 50.7246C43.4965 50.6012 43.3237 50.5244 43.14 50.5052C42.9564 50.486 42.7714 50.5254 42.6115 50.6177L40.2985 51.9532L38.065 48.0849L40.3757 46.7506C40.5355 46.6584 40.662 46.518 40.7373 46.3495C40.8125 46.1811 40.8325 45.9931 40.7945 45.8126C40.6642 45.1935 40.5981 44.5562 40.5981 43.919C40.5981 43.2817 40.6642 42.6445 40.7945 42.0254C40.8325 41.8448 40.8125 41.6569 40.7373 41.4884C40.662 41.32 40.5355 41.1796 40.3757 41.0874L38.065 39.7531L40.2985 35.8847L42.6115 37.2202C42.7714 37.3125 42.9564 37.3519 43.14 37.3326C43.3237 37.3134 43.4965 37.2366 43.6339 37.1132C44.5914 36.2525 45.6936 35.6152 46.91 35.2187C47.0855 35.1615 47.2385 35.0502 47.347 34.9008C47.4554 34.7514 47.5139 34.5715 47.5139 34.3869V31.719H51.9809V34.3869C51.9809 34.5715 52.0393 34.7514 52.1478 34.9008C52.2562 35.0502 52.4092 35.1615 52.5847 35.2187C53.8011 35.6152 54.9034 36.2526 55.8609 37.1132C55.9982 37.2366 56.1711 37.3134 56.3547 37.3326C56.5383 37.3518 56.7233 37.3125 56.8832 37.2202L59.1964 35.8846L61.4297 39.7531L59.119 41.0874C58.9592 41.1796 58.8327 41.3199 58.7575 41.4884C58.6823 41.6568 58.6623 41.8447 58.7002 42.0252C58.9624 43.2741 58.9624 44.5638 58.7002 45.8126C58.6622 45.9931 58.6823 46.1811 58.7575 46.3495C58.8327 46.518 58.9592 46.6584 59.119 46.7506L61.4297 48.0849L59.1962 51.9532ZM49.7472 38.2557C46.6246 38.2557 44.0841 40.7962 44.0841 43.919C44.0841 47.0417 46.6246 49.5821 49.7472 49.5821C52.8699 49.5821 55.4105 47.0417 55.4105 43.919C55.4105 40.7962 52.87 38.2557 49.7472 38.2557ZM49.7472 47.8321C47.5895 47.8321 45.8341 46.0767 45.8341 43.919C45.8341 41.7612 47.5895 40.0057 49.7472 40.0057C51.905 40.0057 53.6605 41.7612 53.6605 43.919C53.6605 46.0767 51.905 47.8321 49.7472 47.8321Z" fill="white"/>
</svg>
