<svg width="65" height="64" viewBox="0 0 65 64" fill="none" xmlns="http://www.w3.org/2000/svg">
<path d="M53.1222 40.422V20.9876C54.8092 20.436 56.0298 18.8504 56.0298 16.9789C56.0298 14.6488 54.1399 12.7596 51.8106 12.7596C50.3408 12.7596 49.0485 13.5118 48.2933 14.6515L36.1142 10.6093C36.1265 10.4795 36.1469 10.3519 36.1469 10.2193C36.1469 7.88928 34.2569 6 31.9271 6C29.5965 6 27.7079 7.88928 27.7079 10.2193C27.7079 10.3564 27.7157 10.4911 27.7283 10.624L15.7321 14.6416C14.9758 13.507 13.685 12.7591 12.2192 12.7591C9.88918 12.7591 8 14.6482 8 16.9783C8 19.0039 9.42778 20.6937 11.3312 21.102V40.3071C9.42778 40.7153 8 42.405 8 44.4309C8 46.7607 9.88918 48.6503 12.2192 48.6503C13.9766 48.6503 15.4827 47.5748 16.1167 46.0464L28.2589 51.6955C27.8965 52.3306 27.7066 53.0495 27.7078 53.7808C27.7078 56.1111 29.5964 58 31.927 58C34.2568 58 36.1468 56.1111 36.1468 53.7808C36.1468 53.0256 35.9405 52.3227 35.5921 51.7093L47.9078 46.0314C48.5378 47.5679 50.0473 48.6508 51.8113 48.6508C54.1412 48.6508 56.0303 46.7618 56.0303 44.4315C56.0298 42.5586 54.8092 40.9742 53.1222 40.422ZM13.5317 40.422V20.9876C14.2857 20.741 14.9366 20.2802 15.4373 19.6887L27.8031 25.4413C27.7402 25.7328 27.7083 26.0301 27.708 26.3283C27.708 28.3538 29.1358 30.0437 31.0392 30.4519V35.5585L14.7078 41.0269C14.3499 40.7649 13.953 40.5608 13.5317 40.422ZM16.1278 42.8718L31.0387 37.8785V49.6571C30.6535 49.7393 30.2899 49.8767 29.9514 50.0561L16.3833 43.7439C16.3331 43.4384 16.2396 43.1505 16.1278 42.8718ZM33.2394 49.7717V38.0156L47.8905 42.8788C47.7812 43.1525 47.7013 43.437 47.652 43.7275L33.9086 50.0627C33.6947 49.9495 33.4723 49.8478 33.2394 49.7717ZM33.2394 35.6976V30.337C34.9264 29.7854 36.1469 28.1997 36.1469 26.3283C36.1469 26.0285 36.1138 25.7365 36.0546 25.4545L48.5747 19.682C49.1667 20.39 49.9862 20.9017 50.9228 21.1026V40.3079C50.3312 40.434 49.7854 40.6865 49.3138 41.0324L33.2394 35.6976ZM47.6037 16.7408C47.599 16.8206 47.5921 16.8987 47.5921 16.979C47.5921 17.2199 47.6137 17.4551 47.6521 17.6853L35.0483 23.4961C34.5615 22.9598 33.9424 22.5491 33.2394 22.3191V14.2286C34.0992 13.947 34.8348 13.3948 35.3531 12.6748L47.6037 16.7408ZM28.5059 12.6842C29.107 13.5154 30.0012 14.1209 31.0386 14.3435V22.2046C30.1653 22.3915 29.3961 22.8502 28.815 23.4855L16.3759 17.6977C16.4153 17.4633 16.4393 17.224 16.4393 16.9783C16.4393 16.8943 16.4315 16.8115 16.4263 16.7286L28.5059 12.6842Z" fill="white"/>
</svg>
