<svg width="32" height="32" viewBox="0 0 32 32" fill="none" xmlns="http://www.w3.org/2000/svg">
<g clip-path="url(#clip0_8049_4138)">
<path d="M11.3125 18.8125C10.7947 18.8125 10.375 19.2323 10.375 19.75V21.625C10.375 22.1427 10.7947 22.5625 11.3125 22.5625C11.8303 22.5625 12.25 22.1427 12.25 21.625V19.75C12.25 19.2323 11.8303 18.8125 11.3125 18.8125ZM20.6875 22.5625C21.2052 22.5625 21.625 22.1427 21.625 21.625V19.75C21.625 19.2323 21.2052 18.8125 20.6875 18.8125C20.1698 18.8125 19.75 19.2323 19.75 19.75V21.625C19.75 22.1427 20.1698 22.5625 20.6875 22.5625ZM17 6.625H27.25C27.7677 6.625 28.1875 6.20525 28.1875 5.6875C28.1875 5.16975 27.7677 4.75 27.25 4.75H17C16.4823 4.75 16.0625 5.16975 16.0625 5.6875C16.0625 6.20525 16.4823 6.625 17 6.625Z" fill="white"/>
<path d="M32 11V4.0625C32 1.82244 30.1776 0 27.9375 0H16.3125C14.0724 0 12.25 1.82244 12.25 4.0625V11.3125H11C7.57331 11.3125 4.69944 13.7231 3.98406 16.9375H3.8125V11.1512C4.90369 10.7642 5.6875 9.72219 5.6875 8.5C5.6875 6.94919 4.42581 5.6875 2.875 5.6875C1.32419 5.6875 0.0625 6.94919 0.0625 8.5C0.0625 9.72219 0.846313 10.7642 1.9375 11.1512V17.0776C0.813938 17.4464 0 18.5046 0 19.75V23.5C0 25.0508 1.26169 26.3125 2.8125 26.3125H3.97044C4.66225 29.5581 7.55113 32 11 32H21C24.4489 32 27.3377 29.5581 28.0296 26.3125H29.1875C30.7383 26.3125 32 25.0508 32 23.5V19.75C32 18.1992 30.7383 16.9375 29.1875 16.9375H28.0156C27.87 16.2827 27.6334 15.6516 27.3126 15.0625H27.9375C30.1776 15.0625 32 13.2401 32 11ZM14.125 4.0625C14.125 2.85631 15.1063 1.875 16.3125 1.875H27.9375C29.1437 1.875 30.125 2.85631 30.125 4.0625V11C30.125 12.2062 29.1437 13.1875 27.9375 13.1875H16.9375C16.7919 13.1875 16.6484 13.2214 16.5182 13.2864L14.125 14.4831V4.0625ZM2.875 7.5625C3.39194 7.5625 3.8125 7.98306 3.8125 8.5C3.8125 9.01694 3.39194 9.4375 2.875 9.4375C2.35806 9.4375 1.9375 9.01694 1.9375 8.5C1.9375 7.98306 2.35806 7.5625 2.875 7.5625ZM1.875 23.5V19.75C1.875 19.2331 2.29556 18.8125 2.8125 18.8125H3.8125V24.4375H2.8125C2.29556 24.4375 1.875 24.0169 1.875 23.5ZM30.125 19.75V23.5C30.125 24.0169 29.7044 24.4375 29.1875 24.4375H28.1875V18.8125H29.1875C29.7044 18.8125 30.125 19.2331 30.125 19.75ZM26.3125 18.5V24.8125C26.3125 27.7418 23.9293 30.125 21 30.125H11C8.07069 30.125 5.6875 27.7418 5.6875 24.8125V18.5C5.6875 15.5707 8.07069 13.1875 11 13.1875H12.25V16C12.25 16.6957 12.9839 17.15 13.6067 16.8385L17.1588 15.0625H25.0489C25.8648 16.022 26.3127 17.2405 26.3125 18.5Z" fill="white"/>
<path d="M17 10.375H27.25C27.7677 10.375 28.1875 9.95525 28.1875 9.4375C28.1875 8.91975 27.7677 8.5 27.25 8.5H17C16.4822 8.5 16.0625 8.91975 16.0625 9.4375C16.0625 9.95525 16.4822 10.375 17 10.375ZM13.1875 25.375C13.1875 25.8927 13.6072 26.3125 14.125 26.3125H17.875C18.3927 26.3125 18.8125 25.8927 18.8125 25.375C18.8125 24.8573 18.3927 24.4375 17.875 24.4375H14.125C13.6072 24.4375 13.1875 24.8573 13.1875 25.375Z" fill="white"/>
</g>
<defs>
<clipPath id="clip0_8049_4138">
<rect width="32" height="32" fill="white"/>
</clipPath>
</defs>
</svg>
