<svg width="64" height="64" viewBox="0 0 64 64" fill="none" xmlns="http://www.w3.org/2000/svg">
<path d="M56.1714 48.457H32.1403C31.3225 45.3114 28.4846 42.9713 25.0857 42.9713C21.6868 42.9713 18.8489 45.3114 18.0311 48.457H8.62856C7.61782 48.457 6.79999 49.2758 6.79999 50.2856C6.79999 51.2954 7.61782 52.1142 8.62856 52.1142H18.0311C18.8489 55.2598 21.6868 57.5999 25.0857 57.5999C28.4846 57.5999 31.3225 55.2598 32.1403 52.1142H56.1714C57.1822 52.1142 58 51.2954 58 50.2856C58 49.2758 57.1822 48.457 56.1714 48.457ZM25.0857 53.9428C23.0697 53.9428 21.4286 52.3025 21.4286 50.2856C21.4286 48.2687 23.0697 46.6285 25.0857 46.6285C27.1017 46.6285 28.7428 48.2687 28.7428 50.2856C28.7428 52.3025 27.1017 53.9428 25.0857 53.9428ZM56.1714 30.1713H46.7689C45.9511 27.0257 43.1131 24.6856 39.7143 24.6856C36.3154 24.6856 33.4775 27.0257 32.6596 30.1713H8.62856C7.61782 30.1713 6.79999 30.9901 6.79999 31.9999C6.79999 33.0097 7.61782 33.8285 8.62856 33.8285H32.6596C33.4775 36.9741 36.3154 39.3142 39.7143 39.3142C43.1131 39.3142 45.9511 36.9741 46.7689 33.8285H56.1714C57.1822 33.8285 58 33.0097 58 31.9999C58 30.9901 57.1822 30.1713 56.1714 30.1713ZM39.7143 35.657C37.6983 35.657 36.0571 34.0168 36.0571 31.9999C36.0571 29.983 37.6983 28.3428 39.7143 28.3428C41.7303 28.3428 43.3714 29.983 43.3714 31.9999C43.3714 34.0168 41.7303 35.657 39.7143 35.657ZM8.62856 15.5428H18.0311C18.8489 18.6884 21.6868 21.0285 25.0857 21.0285C28.4846 21.0285 31.3225 18.6884 32.1403 15.5428H56.1714C57.1822 15.5428 58 14.724 58 13.7142C58 12.7044 57.1822 11.8856 56.1714 11.8856H32.1403C31.3225 8.74002 28.4846 6.3999 25.0857 6.3999C21.6868 6.3999 18.8489 8.74002 18.0311 11.8856H8.62856C7.61782 11.8856 6.79999 12.7044 6.79999 13.7142C6.79999 14.724 7.61782 15.5428 8.62856 15.5428ZM25.0857 10.057C27.1017 10.057 28.7428 11.6973 28.7428 13.7142C28.7428 15.7311 27.1017 17.3713 25.0857 17.3713C23.0697 17.3713 21.4286 15.7311 21.4286 13.7142C21.4286 11.6973 23.0697 10.057 25.0857 10.057Z" fill="#121215"/>
</svg>
