<svg width="33" height="32" viewBox="0 0 33 32" fill="none" xmlns="http://www.w3.org/2000/svg">
<g clip-path="url(#clip0_8049_4179)">
<path d="M31.3184 3.75025C31.3164 3.75025 31.3144 3.75 31.3125 3.75H22.8125V2.8125C22.8125 1.26169 21.5508 0 20 0H12.5C10.9492 0 9.6875 1.26175 9.6875 2.8125V3.75H1.1875C0.6655 3.75 0.25 4.17775 0.25 4.6875V25.3125C0.25 26.8633 1.51175 28.125 3.0625 28.125H29.4375C30.9883 28.125 32.25 26.8633 32.25 25.3125V4.70363C32.2141 4.08788 31.8354 3.75363 31.3184 3.75025ZM11.5625 2.8125C11.5625 2.29562 11.9831 1.875 12.5 1.875H20C20.5169 1.875 20.9375 2.29562 20.9375 2.8125V3.75H11.5625V2.8125ZM30.0117 5.625L27.1003 14.3589C27.0383 14.5456 26.9191 14.7081 26.7595 14.8232C26.5998 14.9383 26.408 15.0002 26.2113 15H20.9375V14.0625C20.9375 13.5447 20.5178 13.125 20 13.125H12.5C11.9822 13.125 11.5625 13.5447 11.5625 14.0625V15H6.28881C6.09203 15.0002 5.90019 14.9383 5.74057 14.8232C5.58095 14.7081 5.46167 14.5456 5.39969 14.3589L2.48831 5.625H30.0117ZM19.0625 15V16.875H13.4375V15H19.0625ZM30.375 25.3125C30.375 25.8294 29.9544 26.25 29.4375 26.25H3.0625C2.54562 26.25 2.125 25.8294 2.125 25.3125V10.4646L3.62087 14.9519C3.80699 15.5122 4.16494 15.9996 4.64387 16.3448C5.1228 16.69 5.69836 16.8756 6.28875 16.875H11.5625V17.8125C11.5625 18.3303 11.9822 18.75 12.5 18.75H20C20.5178 18.75 20.9375 18.3303 20.9375 17.8125V16.875H26.2112C26.8016 16.8756 27.3772 16.6901 27.8561 16.3448C28.335 15.9996 28.693 15.5122 28.8791 14.9519L30.375 10.4646V25.3125Z" fill="white"/>
</g>
<defs>
<clipPath id="clip0_8049_4179">
<rect width="32" height="32" fill="white" transform="translate(0.25)"/>
</clipPath>
</defs>
</svg>
