<svg width="64" height="64" viewBox="0 0 64 64" fill="none" xmlns="http://www.w3.org/2000/svg">
<g clip-path="url(#clip0_8306_1652)">
<path d="M60.8 0H53.3333C52.7675 0 52.2249 0.224761 51.8248 0.624839C51.4248 1.02492 51.2 1.56754 51.2 2.13333V4.26667C51.2001 4.79118 51.3935 5.29725 51.7432 5.68822C52.0928 6.07919 52.5742 6.32765 53.0955 6.38613L49.2213 10.2624C44.3207 6.38011 38.2521 4.26759 32 4.26759C25.7479 4.26759 19.6793 6.38011 14.7787 10.2624L10.9045 6.38613C11.4258 6.32765 11.9072 6.07919 12.2569 5.68822C12.6065 5.29725 12.7999 4.79118 12.8 4.26667V2.13333C12.8 1.56754 12.5752 1.02492 12.1752 0.624839C11.7751 0.224761 11.2325 0 10.6667 0L3.2 0C2.35131 0 1.53737 0.337142 0.937258 0.937258C0.337142 1.53737 0 2.35131 0 3.2L0 10.6667C0 11.2325 0.224761 11.7751 0.624839 12.1752C1.02492 12.5752 1.56754 12.8 2.13333 12.8H4.26667C4.79118 12.7999 5.29725 12.6065 5.68822 12.2569C6.07919 11.9072 6.32765 11.4258 6.38613 10.9045L10.2624 14.7787C6.38011 19.6793 4.26759 25.7479 4.26759 32C4.26759 38.2521 6.38011 44.3207 10.2624 49.2213L6.38613 53.0955C6.32765 52.5742 6.07919 52.0928 5.68822 51.7432C5.29725 51.3935 4.79118 51.2001 4.26667 51.2H2.13333C1.56754 51.2 1.02492 51.4248 0.624839 51.8248C0.224761 52.2249 0 52.7675 0 53.3333L0 60.8C0 61.6487 0.337142 62.4626 0.937258 63.0627C1.53737 63.6629 2.35131 64 3.2 64H10.6667C11.2325 64 11.7751 63.7752 12.1752 63.3752C12.5752 62.9751 12.8 62.4325 12.8 61.8667V59.7333C12.7999 59.2088 12.6065 58.7027 12.2569 58.3118C11.9072 57.9208 11.4258 57.6724 10.9045 57.6139L14.7787 53.7376C19.6793 57.6199 25.7479 59.7324 32 59.7324C38.2521 59.7324 44.3207 57.6199 49.2213 53.7376L53.0955 57.6139C52.5742 57.6724 52.0928 57.9208 51.7432 58.3118C51.3935 58.7027 51.2001 59.2088 51.2 59.7333V61.8667C51.2 62.4325 51.4248 62.9751 51.8248 63.3752C52.2249 63.7752 52.7675 64 53.3333 64H60.8C61.6487 64 62.4626 63.6629 63.0627 63.0627C63.6629 62.4626 64 61.6487 64 60.8V53.3333C64 52.7675 63.7752 52.2249 63.3752 51.8248C62.9751 51.4248 62.4325 51.2 61.8667 51.2H59.7333C59.2088 51.2001 58.7027 51.3935 58.3118 51.7432C57.9208 52.0928 57.6724 52.5742 57.6139 53.0955L53.7376 49.2213C57.6199 44.3207 59.7324 38.2521 59.7324 32C59.7324 25.7479 57.6199 19.6793 53.7376 14.7787L57.6139 10.9045C57.6724 11.4258 57.9208 11.9072 58.3118 12.2569C58.7027 12.6065 59.2088 12.7999 59.7333 12.8H61.8667C62.4325 12.8 62.9751 12.5752 63.3752 12.1752C63.7752 11.7751 64 11.2325 64 10.6667V3.2C64 2.35131 63.6629 1.53737 63.0627 0.937258C62.4626 0.337142 61.6487 0 60.8 0ZM61.8667 10.6667H59.7333V8.34133C59.7333 8.1304 59.6707 7.92422 59.5535 7.74884C59.4363 7.57347 59.2697 7.43679 59.0748 7.35608C58.88 7.27536 58.6655 7.25424 58.4586 7.29538C58.2518 7.33652 58.0617 7.43807 57.9125 7.5872L51.5445 13.9552C51.355 14.145 51.2439 14.3993 51.2334 14.6673C51.2229 14.9354 51.3138 15.1976 51.488 15.4016C55.4331 20.0323 57.5999 25.9167 57.5999 32C57.5999 38.0833 55.4331 43.9677 51.488 48.5984C51.3138 48.8024 51.2229 49.0646 51.2334 49.3327C51.2439 49.6007 51.355 49.855 51.5445 50.0448L57.9125 56.4128C58.0617 56.5619 58.2518 56.6635 58.4586 56.7046C58.6655 56.7458 58.88 56.7246 59.0748 56.6439C59.2697 56.5632 59.4363 56.4265 59.5535 56.2512C59.6707 56.0758 59.7333 55.8696 59.7333 55.6587V53.3333H61.8667V60.8C61.8667 61.0829 61.7543 61.3542 61.5543 61.5543C61.3542 61.7543 61.0829 61.8667 60.8 61.8667H53.3333V59.7333H55.6587C55.8696 59.7333 56.0758 59.6707 56.2512 59.5535C56.4265 59.4363 56.5632 59.2697 56.6439 59.0748C56.7246 58.88 56.7458 58.6655 56.7046 58.4586C56.6635 58.2518 56.5619 58.0617 56.4128 57.9125L50.0448 51.5445C49.855 51.355 49.6007 51.2439 49.3327 51.2334C49.0646 51.2229 48.8024 51.3138 48.5984 51.488C43.9677 55.4331 38.0833 57.5999 32 57.5999C25.9167 57.5999 20.0323 55.4331 15.4016 51.488C15.1976 51.3138 14.9354 51.2229 14.6673 51.2334C14.3993 51.2439 14.145 51.355 13.9552 51.5445L7.5872 57.9125C7.43807 58.0617 7.33652 58.2518 7.29538 58.4586C7.25424 58.6655 7.27536 58.88 7.35608 59.0748C7.43679 59.2697 7.57347 59.4363 7.74884 59.5535C7.92422 59.6707 8.1304 59.7333 8.34133 59.7333H10.6667V61.8667H3.2C2.9171 61.8667 2.64579 61.7543 2.44575 61.5543C2.24571 61.3542 2.13333 61.0829 2.13333 60.8V53.3333H4.26667V55.6587C4.26671 55.8696 4.3293 56.0758 4.44651 56.2512C4.56371 56.4265 4.73029 56.5632 4.92517 56.6439C5.12005 56.7246 5.33448 56.7458 5.54137 56.7046C5.74825 56.6635 5.93829 56.5619 6.08747 56.4128L12.4555 50.0448C12.6451 49.855 12.7562 49.6007 12.7666 49.3327C12.7771 49.0646 12.6862 48.8024 12.512 48.5984C8.56691 43.9677 6.40015 38.0833 6.40015 32C6.40015 25.9167 8.56691 20.0323 12.512 15.4016C12.6862 15.1976 12.7771 14.9354 12.7666 14.6673C12.7562 14.3993 12.6451 14.145 12.4555 13.9552L6.08747 7.5872C5.93829 7.43807 5.74825 7.33652 5.54137 7.29538C5.33448 7.25424 5.12005 7.27536 4.92517 7.35608C4.73029 7.43679 4.56371 7.57347 4.44651 7.74884C4.3293 7.92422 4.26671 8.1304 4.26667 8.34133V10.6667H2.13333V3.2C2.13333 2.9171 2.24571 2.64579 2.44575 2.44575C2.64579 2.24571 2.9171 2.13333 3.2 2.13333H10.6667V4.26667H8.34133C8.1304 4.26671 7.92422 4.3293 7.74884 4.44651C7.57347 4.56371 7.43679 4.73029 7.35608 4.92517C7.27536 5.12005 7.25424 5.33448 7.29538 5.54137C7.33652 5.74825 7.43807 5.93829 7.5872 6.08747L13.9552 12.4555C14.145 12.6451 14.3993 12.7562 14.6673 12.7666C14.9354 12.7771 15.1976 12.6862 15.4016 12.512C20.0323 8.56691 25.9167 6.40015 32 6.40015C38.0833 6.40015 43.9677 8.56691 48.5984 12.512C48.8024 12.6862 49.0646 12.7771 49.3327 12.7666C49.6007 12.7562 49.855 12.6451 50.0448 12.4555L56.4128 6.08747C56.5619 5.93829 56.6635 5.74825 56.7046 5.54137C56.7458 5.33448 56.7246 5.12005 56.6439 4.92517C56.5632 4.73029 56.4265 4.56371 56.2512 4.44651C56.0758 4.3293 55.8696 4.26671 55.6587 4.26667H53.3333V2.13333H60.8C61.0829 2.13333 61.3542 2.24571 61.5543 2.44575C61.7543 2.64579 61.8667 2.9171 61.8667 3.2V10.6667Z" fill="white"/>
<path d="M31.9999 8.5332C27.3586 8.5332 22.8216 9.9095 18.9625 12.488C15.1034 15.0666 12.0956 18.7316 10.3195 23.0196C8.54337 27.3075 8.07865 32.0259 8.98412 36.578C9.88959 41.1301 12.1246 45.3114 15.4064 48.5933C18.6883 51.8752 22.8697 54.1102 27.4218 55.0156C31.9739 55.9211 36.6922 55.4564 40.9802 53.6802C45.2682 51.9041 48.9332 48.8963 51.5117 45.0373C54.0903 41.1782 55.4666 36.6411 55.4666 31.9999C55.4595 25.7783 52.9849 19.8136 48.5855 15.4142C44.1862 11.0149 38.2215 8.54026 31.9999 8.5332ZM31.9999 53.3332C27.7805 53.3332 23.656 52.082 20.1477 49.7379C16.6395 47.3938 13.9051 44.0619 12.2905 40.1638C10.6758 36.2656 10.2533 31.9762 11.0765 27.8379C11.8996 23.6997 13.9314 19.8984 16.9149 16.9149C19.8985 13.9314 23.6997 11.8996 27.838 11.0765C31.9762 10.2533 36.2656 10.6758 40.1638 12.2904C44.062 13.9051 47.3938 16.6395 49.7379 20.1477C52.082 23.656 53.3332 27.7805 53.3332 31.9999C53.3267 37.6558 51.077 43.0783 47.0777 47.0776C43.0783 51.077 37.6558 53.3267 31.9999 53.3332Z" fill="white"/>
<path d="M32 14.9331C25.6394 14.9331 19.2 16.7656 19.2 20.2664V42.6664C19.2 46.1672 25.6394 47.9998 32 47.9998C38.3605 47.9998 44.8 46.1672 44.8 42.6664V20.2664C44.8 16.7656 38.3605 14.9331 32 14.9331ZM32 45.8664C25.5872 45.8664 21.3333 43.94 21.3333 42.6664V38.2728C23.7493 39.7619 27.8858 40.5331 32 40.5331C36.1141 40.5331 40.2506 39.7619 42.6666 38.2728V42.6664C42.6666 43.94 38.4128 45.8664 32 45.8664ZM32 38.3998C25.5872 38.3998 21.3333 36.4734 21.3333 35.1998V30.8062C23.7493 32.2952 27.8858 33.0664 32 33.0664C36.1141 33.0664 40.2506 32.2952 42.6666 30.8062V35.1998C42.6666 36.4734 38.4128 38.3998 32 38.3998ZM32 30.9331C25.5872 30.9331 21.3333 29.0067 21.3333 27.7331V23.3395C23.7493 24.8286 27.8858 25.5998 32 25.5998C36.1141 25.5998 40.2506 24.8286 42.6666 23.3395V27.7331C42.6666 29.0067 38.4128 30.9331 32 30.9331ZM32 23.4664C25.5872 23.4664 21.3333 21.54 21.3333 20.2664C21.3333 18.9928 25.5872 17.0664 32 17.0664C38.4128 17.0664 42.6666 18.9928 42.6666 20.2664C42.6666 21.54 38.4128 23.4664 32 23.4664Z" fill="white"/>
</g>
<defs>
<clipPath id="clip0_8306_1652">
<rect width="64" height="64" fill="white"/>
</clipPath>
</defs>
</svg>
