<svg width="29" height="28" viewBox="0 0 29 28" fill="none" xmlns="http://www.w3.org/2000/svg">
<path d="M10.7646 7.71614H25.3582L17.3863 13.9763C17.2263 14.0987 17.0348 14.1733 16.8341 14.1913C16.6323 14.1729 16.4398 14.0984 16.2781 13.9763L10.5811 9.50098C10.5208 9.45216 10.4517 9.41531 10.3776 9.39241C10.654 9.00503 10.7989 8.53917 10.7908 8.06334C10.7884 7.94722 10.7796 7.83131 10.7646 7.71614ZM7.05338 3.69005C7.07174 3.69316 7.10192 3.70467 7.16756 3.73516C7.29729 3.79676 7.50356 3.95543 7.70547 4.17663C8.11209 4.61965 8.5184 5.29072 8.72934 5.73374C8.73587 5.74681 8.74271 5.76112 8.74894 5.77574C9.34751 6.80272 9.60574 7.58827 9.61351 8.08107C9.62192 8.57605 9.48907 8.78916 9.06938 9.03027L7.98672 9.65436C7.28143 10.0604 6.94823 10.7881 6.86547 11.4669C6.7824 12.1461 6.90467 12.8059 7.20676 13.3277L9.8792 17.9337C10.1819 18.4551 10.6987 18.8913 11.3305 19.1591C11.963 19.4276 12.7629 19.5035 13.4682 19.0985L14.5508 18.4756C14.9702 18.2351 15.2238 18.2301 15.6497 18.4834C16.0768 18.7373 16.6316 19.3505 17.2276 20.3781C17.236 20.3933 17.2441 20.4061 17.2538 20.4207C17.5332 20.8236 17.9136 21.5071 18.0972 22.0795C18.1884 22.3639 18.2241 22.6209 18.2126 22.763C18.1999 22.9058 18.1968 22.8912 18.1591 22.9136L17.3353 23.3859C15.2658 24.2834 13.3689 24.0809 11.6737 23.2017C9.97534 22.3188 8.49911 20.7243 7.46996 18.8524C7.46654 18.8486 7.46498 18.844 7.46218 18.8415L5.20787 14.9563C5.20414 14.9526 5.20258 14.9492 5.19947 14.9442C4.08414 13.1211 3.43423 11.0513 3.51574 9.14694C3.59725 7.24543 4.3688 5.51192 6.18631 4.17818L7.01045 3.70747C7.02943 3.69658 7.03565 3.68818 7.05338 3.69005ZM7.06178 2.5324C6.84369 2.52898 6.62125 2.57472 6.4212 2.69076L5.54978 3.19196C5.53018 3.20316 5.51214 3.21467 5.4944 3.22587C3.39783 4.76027 2.43245 6.89636 2.33818 9.09809C2.24392 11.2989 2.97876 13.5703 4.19271 15.5561L6.43956 19.4279L6.43427 19.4164C7.55583 21.4545 9.16303 23.2225 11.1271 24.2411C13.092 25.2613 15.4328 25.4977 17.8172 24.458C17.8368 24.4496 17.8567 24.4402 17.8744 24.4293L18.7471 23.9281C19.1506 23.6985 19.3535 23.2518 19.3864 22.8617C19.4204 22.4728 19.341 22.0941 19.2206 21.7211C18.9848 20.9835 18.5735 20.267 18.2338 19.7754C17.592 18.6713 16.9722 17.905 16.256 17.4766C15.9101 17.2686 15.5146 17.1572 15.1109 17.1541C14.7073 17.151 14.3101 17.2562 13.961 17.4589L12.8783 18.083C12.5585 18.2672 12.1845 18.2457 11.791 18.0793C11.3993 17.9128 11.0365 17.5799 10.9018 17.3466L8.22938 12.7409C8.09436 12.5063 7.98392 12.0278 8.03618 11.606C8.08658 11.1853 8.25738 10.8559 8.57752 10.6714L9.62938 10.0666C9.65676 10.2075 9.7364 10.3354 9.85183 10.4213L15.5492 14.8975C15.9077 15.1812 16.3445 15.3483 16.8008 15.3763C16.8235 15.3776 16.8462 15.3776 16.8689 15.3763C17.3247 15.3482 17.761 15.1811 18.119 14.8975L25.9658 8.73316V18.9171C25.9658 19.072 25.7891 19.2761 25.4425 19.2761H20.0102C19.9328 19.2756 19.856 19.2904 19.7842 19.3196C19.7125 19.3489 19.6473 19.392 19.5923 19.4466C19.5373 19.5011 19.4936 19.566 19.4638 19.6375C19.434 19.709 19.4186 19.7857 19.4185 19.8632C19.4185 20.1877 19.6836 20.4515 20.0102 20.4496H25.4425C26.3304 20.4496 27.1465 19.8078 27.1465 18.9171V8.07516C27.1465 7.18383 26.3304 6.54232 25.4425 6.54232H10.4414C10.2752 6.12698 10.0559 5.68676 9.77965 5.20827C9.52112 4.67005 9.10174 3.95854 8.57689 3.3864C8.31183 3.09645 8.02592 2.83947 7.66845 2.67334V2.67489C7.4783 2.58582 7.2717 2.5373 7.06178 2.5324Z" fill="#7D3CF3"/>
</svg>
