<svg width="28" height="28" viewBox="0 0 28 28" fill="none" xmlns="http://www.w3.org/2000/svg">
<g clip-path="url(#clip0_8049_2752)">
<path d="M26.1258 8.58788H23.1909V3.1257C23.1909 1.95035 22.2347 0.994141 21.0594 0.994141H2.13155C0.956211 0.994141 0 1.95035 0 3.1257V17.4186C0 18.5939 0.956211 19.5502 2.13155 19.5502H3.39035V22.8277C3.39034 22.9426 3.41296 23.0564 3.45692 23.1625C3.50088 23.2687 3.56532 23.3652 3.64656 23.4464C3.72781 23.5277 3.82426 23.5921 3.93041 23.6361C4.03656 23.6801 4.15034 23.7027 4.26524 23.7027C4.45479 23.7027 4.64297 23.6412 4.79894 23.5212L9.19942 20.1356V21.8285C9.19942 22.8619 10.0402 23.7027 11.0737 23.7027H19.8391L23.8954 26.8235C24.0249 26.9231 24.1797 26.9845 24.3423 27.0007C24.5049 27.0169 24.6688 26.9872 24.8154 26.915C24.962 26.8428 25.0855 26.731 25.1718 26.5923C25.2582 26.4535 25.304 26.2934 25.304 26.13V23.7027H26.1258C27.1592 23.7027 28 22.8619 28 21.8285V10.4622C28 9.4287 27.1592 8.58788 26.1258 8.58788ZM5.1403 21.0505V18.6751C5.1403 18.1919 4.74857 17.8001 4.2653 17.8001H2.13155C1.92473 17.8001 1.75 17.6254 1.75 17.4186V3.1257C1.75 2.91887 1.92467 2.74414 2.13155 2.74414H21.0594C21.2662 2.74414 21.4409 2.91887 21.4409 3.1257V17.4186C21.4409 17.6254 21.2663 17.8002 21.0594 17.8002H9.66263C9.46961 17.8002 9.28202 17.864 9.12904 17.9817L5.1403 21.0505ZM26.25 21.8284C26.25 21.8946 26.1919 21.9527 26.1258 21.9527H24.4289C23.9456 21.9527 23.5539 22.3445 23.5539 22.8277V24.3528L20.6703 22.1342C20.5173 22.0165 20.3298 21.9527 20.1368 21.9527H11.0736C11.0074 21.9527 10.9494 21.8946 10.9494 21.8284V19.5502H21.0594C22.2347 19.5502 23.1909 18.5939 23.1909 17.4186V10.3379H26.1258C26.192 10.3379 26.25 10.396 26.25 10.4621V21.8284ZM9.6612 8.59921H9.65562C9.17241 8.5962 8.78309 8.20201 8.78609 7.71879C8.7932 6.58572 9.2931 5.66713 10.1577 5.19868C11.0539 4.71306 12.22 4.77671 13.1284 5.36094C14.0018 5.92252 14.464 6.84029 14.3988 7.88132C14.3639 8.97737 13.6454 9.61913 13.0673 10.1355C12.4041 10.7278 11.998 11.1344 12.0059 11.9907C12.0103 12.4739 11.6222 12.8692 11.1389 12.8736L11.1308 12.8737C10.6512 12.8737 10.2604 12.4873 10.256 12.0067C10.2405 10.3139 11.2005 9.45643 11.9015 8.83031C12.4272 8.36077 12.6422 8.13781 12.6499 7.8192C12.6502 7.80624 12.6508 7.79322 12.6517 7.78026C12.6868 7.26948 12.4156 6.98313 12.182 6.83285C11.8139 6.59617 11.3243 6.5569 10.9914 6.73731C10.6923 6.89935 10.5391 7.23322 10.5361 7.72967C10.533 8.21103 10.1419 8.59921 9.6612 8.59921ZM12.0508 15.1165C12.0508 15.5997 11.6591 15.9915 11.1758 15.9915H11.0859C10.6026 15.9915 10.2109 15.5997 10.2109 15.1165C10.2109 14.6333 10.6026 14.2415 11.0859 14.2415H11.1758C11.6591 14.2415 12.0508 14.6333 12.0508 15.1165Z" fill="#7D3CF3"/>
</g>
<defs>
<clipPath id="clip0_8049_2752">
<rect width="28" height="28" fill="white"/>
</clipPath>
</defs>
</svg>
