<svg width="64" height="64" viewBox="0 0 64 64" fill="none" xmlns="http://www.w3.org/2000/svg">
<g clip-path="url(#clip0_8851_1756)">
<path d="M32 8C31.6464 8 31.3072 7.85952 31.0572 7.60948C30.8071 7.35943 30.6667 7.02029 30.6667 6.66667V1.33333C30.6667 0.979711 30.8071 0.640573 31.0572 0.390524C31.3072 0.140476 31.6464 0 32 0C32.3536 0 32.6928 0.140476 32.9428 0.390524C33.1929 0.640573 33.3333 0.979711 33.3333 1.33333V6.66667C33.3333 7.02029 33.1929 7.35943 32.9428 7.60948C32.6928 7.85952 32.3536 8 32 8ZM49.9147 15.4187C49.6512 15.4186 49.3936 15.3405 49.1744 15.1941C48.9553 15.0478 48.7845 14.8398 48.6835 14.5964C48.5825 14.353 48.5558 14.0852 48.6069 13.8267C48.6581 13.5682 48.7846 13.3306 48.9707 13.144L52.7413 9.37333C52.9928 9.13046 53.3296 8.99606 53.6792 8.9991C54.0288 9.00214 54.3632 9.14237 54.6104 9.38958C54.8576 9.63679 54.9979 9.9712 55.0009 10.3208C55.0039 10.6704 54.8695 11.0072 54.6267 11.2587L50.856 15.0293C50.7324 15.153 50.5857 15.251 50.4241 15.3178C50.2626 15.3847 50.0895 15.4189 49.9147 15.4187ZM62.6667 33.3333H57.3333C56.9797 33.3333 56.6406 33.1929 56.3905 32.9428C56.1405 32.6928 56 32.3536 56 32C56 31.6464 56.1405 31.3072 56.3905 31.0572C56.6406 30.8071 56.9797 30.6667 57.3333 30.6667H62.6667C63.0203 30.6667 63.3594 30.8071 63.6095 31.0572C63.8595 31.3072 64 31.6464 64 32C64 32.3536 63.8595 32.6928 63.6095 32.9428C63.3594 33.1929 63.0203 33.3333 62.6667 33.3333ZM53.6853 55.0187C53.3316 55.0187 52.9922 54.8787 52.7413 54.6293L48.9707 50.8587C48.7278 50.6072 48.5934 50.2704 48.5964 49.9208C48.5995 49.5712 48.7397 49.2368 48.9869 48.9896C49.2341 48.7424 49.5685 48.6021 49.9181 48.5991C50.2677 48.5961 50.6045 48.7305 50.856 48.9733L54.6267 52.744C54.8125 52.9305 54.9391 53.1678 54.9903 53.426C55.0415 53.6843 55.0151 53.9519 54.9144 54.1952C54.8137 54.4385 54.6433 54.6465 54.4246 54.793C54.2058 54.9396 53.9486 55.0181 53.6853 55.0187ZM32 64C31.6464 64 31.3072 63.8595 31.0572 63.6095C30.8071 63.3594 30.6667 63.0203 30.6667 62.6667V57.3333C30.6667 56.9797 30.8071 56.6406 31.0572 56.3905C31.3072 56.1405 31.6464 56 32 56C32.3536 56 32.6928 56.1405 32.9428 56.3905C33.1929 56.6406 33.3333 56.9797 33.3333 57.3333V62.6667C33.3333 63.0203 33.1929 63.3594 32.9428 63.6095C32.6928 63.8595 32.3536 64 32 64ZM10.3147 55.0187C10.0512 55.0186 9.79358 54.9405 9.57445 54.7941C9.35531 54.6478 9.18446 54.4398 9.08346 54.1964C8.98245 53.953 8.95583 53.6852 9.00694 53.4267C9.05806 53.1682 9.18463 52.9306 9.37067 52.744L13.1413 48.9733C13.3928 48.7305 13.7296 48.5961 14.0792 48.5991C14.4288 48.6021 14.7632 48.7424 15.0104 48.9896C15.2576 49.2368 15.3979 49.5712 15.4009 49.9208C15.4039 50.2704 15.2695 50.6072 15.0267 50.8587L11.256 54.6293C11.1324 54.753 10.9857 54.851 10.8241 54.9178C10.6626 54.9847 10.4895 55.0189 10.3147 55.0187ZM6.66667 33.3333H1.33333C0.979711 33.3333 0.640573 33.1929 0.390524 32.9428C0.140476 32.6928 0 32.3536 0 32C0 31.6464 0.140476 31.3072 0.390524 31.0572C0.640573 30.8071 0.979711 30.6667 1.33333 30.6667H6.66667C7.02029 30.6667 7.35943 30.8071 7.60948 31.0572C7.85952 31.3072 8 31.6464 8 32C8 32.3536 7.85952 32.6928 7.60948 32.9428C7.35943 33.1929 7.02029 33.3333 6.66667 33.3333ZM14.0853 15.4187C13.7316 15.4187 13.3922 15.2787 13.1413 15.0293L9.37333 11.2587C9.13046 11.0072 8.99606 10.6704 8.9991 10.3208C9.00214 9.9712 9.14237 9.63679 9.38958 9.38958C9.63679 9.14237 9.9712 9.00214 10.3208 8.9991C10.6704 8.99606 11.0072 9.13046 11.2587 9.37333L15.0293 13.144C15.2154 13.3306 15.3419 13.5682 15.3931 13.8267C15.4442 14.0852 15.4175 14.353 15.3165 14.5964C15.2155 14.8398 15.0447 15.0478 14.8256 15.1941C14.6064 15.3405 14.3488 15.4186 14.0853 15.4187ZM28.1947 53.3333C28.0049 53.3334 27.8173 53.293 27.6443 53.2148C27.4714 53.1365 27.3172 53.0223 27.192 52.8796C27.0668 52.737 26.9735 52.5693 26.9183 52.3877C26.8631 52.2061 26.8473 52.0148 26.872 51.8267L29.1467 34.6667H20C19.7524 34.6667 19.5097 34.5977 19.299 34.4675C19.0884 34.3374 18.9182 34.1511 18.8074 33.9296C18.6967 33.7081 18.6498 33.4602 18.6721 33.2136C18.6943 32.967 18.7848 32.7314 18.9333 32.5333L34.9333 11.2C35.1121 10.96 35.3665 10.787 35.6555 10.7091C35.9445 10.6312 36.2513 10.6528 36.5266 10.7704C36.8018 10.888 37.0295 11.0948 37.1729 11.3575C37.3163 11.6202 37.3672 11.9235 37.3173 12.2187L34.9067 26.6667H44C44.2412 26.6661 44.478 26.7311 44.6853 26.8545C44.8925 26.978 45.0624 27.1553 45.1767 27.3677C45.2911 27.58 45.3458 27.8195 45.3348 28.0604C45.3239 28.3014 45.2478 28.5349 45.1147 28.736L29.3093 52.736C29.1872 52.9197 29.0215 53.0704 28.827 53.1746C28.6325 53.2788 28.4153 53.3333 28.1947 53.3333ZM22.6667 32H30.6667C30.8567 31.9999 31.0446 32.0403 31.2177 32.1187C31.3908 32.1971 31.5452 32.3116 31.6704 32.4546C31.7957 32.5975 31.8889 32.7656 31.9439 32.9475C31.9989 33.1294 32.0144 33.321 31.9893 33.5093L30.28 46.4107L41.5253 29.3333H33.3333C33.1398 29.3332 32.9486 29.291 32.773 29.2096C32.5974 29.1282 32.4417 29.0095 32.3166 28.8618C32.1915 28.7141 32.1 28.541 32.0486 28.3544C31.9971 28.1678 31.9869 27.9723 32.0187 27.7813L33.7867 17.1733L22.6667 32Z" fill="#7D3CF3"/>
</g>
<defs>
<clipPath id="clip0_8851_1756">
<rect width="64" height="64" fill="white"/>
</clipPath>
</defs>
</svg>
