<svg width="80" height="80" viewBox="0 0 80 80" fill="none" xmlns="http://www.w3.org/2000/svg">
<path d="M63.2837 25.9413L55.3337 17.9913C55.17 17.8261 54.9633 17.71 54.7371 17.6558C54.5109 17.6017 54.2741 17.6118 54.0532 17.6849C53.8324 17.758 53.6364 17.8913 53.4872 18.0698C53.338 18.2482 53.2416 18.4648 53.2088 18.695C53.0773 19.6142 52.6925 20.4786 52.0975 21.1914C51.5025 21.9041 50.7208 22.4372 49.8399 22.7307C48.959 23.0243 48.0138 23.0667 47.1102 22.8534C46.2065 22.64 45.3801 22.1793 44.7236 21.5227C44.067 20.8662 43.6063 20.0398 43.3929 19.1361C43.1796 18.2325 43.222 17.2873 43.5156 16.4064C43.8091 15.5255 44.3422 14.7438 45.0549 14.1488C45.7677 13.5538 46.6321 13.169 47.5513 13.0375C47.7815 13.0047 47.9981 12.9083 48.1765 12.7591C48.355 12.6099 48.4883 12.4139 48.5614 12.193C48.6345 11.9722 48.6446 11.7354 48.5905 11.5092C48.5363 11.283 48.4202 11.0763 48.255 10.9125L40.305 2.96254C40.0706 2.7282 39.7527 2.59656 39.4212 2.59656C39.0898 2.59656 38.7719 2.7282 38.5375 2.96254L31.6337 9.86379C31.2938 8.59152 30.6249 7.43119 29.6943 6.49947C28.7636 5.56775 27.604 4.8975 26.3321 4.55612C25.0603 4.21474 23.7209 4.21426 22.4488 4.55474C21.1767 4.89522 20.0166 5.56465 19.0853 6.49571C18.154 7.42677 17.4843 8.58663 17.1435 9.85866C16.8026 11.1307 16.8027 12.47 17.1438 13.742C17.4848 15.014 18.1547 16.1737 19.0862 17.1046C20.0177 18.0355 21.1778 18.7048 22.45 19.045L15.5538 25.9413C15.3194 26.1757 15.1878 26.4936 15.1878 26.825C15.1878 27.1565 15.3194 27.4744 15.5538 27.7088L22.4525 34.6163C20.9381 35.0231 19.5893 35.8944 18.5957 37.1076C17.6022 38.3208 17.0139 39.8149 16.9136 41.3798C16.8133 42.9447 17.206 44.5017 18.0366 45.8318C18.8671 47.1619 20.0937 48.1982 21.5438 48.795L18.625 57.2138C18.2373 58.0873 18.055 59.0382 18.0923 59.9931C18.1296 60.9481 18.3854 61.8819 18.84 62.7225L23.2275 73.0975C23.2437 73.1375 23.2625 73.1763 23.2838 73.2138C23.591 73.777 23.7514 74.4085 23.75 75.05V76.25C23.75 76.5816 23.8817 76.8995 24.1161 77.1339C24.3505 77.3683 24.6685 77.5 25 77.5C25.3315 77.5 25.6495 77.3683 25.8839 77.1339C26.1183 76.8995 26.25 76.5816 26.25 76.25V75.05C26.2487 74.0102 25.9911 72.9867 25.5 72.07L21.1112 61.695C21.0938 61.6522 21.0738 61.6104 21.0513 61.57C20.7648 61.0471 20.6055 60.4641 20.5864 59.8682C20.5673 59.2723 20.6889 58.6802 20.9412 58.14L23.9987 49.34C24.13 49.34 24.2588 49.3588 24.3913 49.3588C26.041 49.3602 27.6451 48.8167 28.9541 47.8126C30.2632 46.8085 31.2039 45.4001 31.63 43.8063L33.75 45.9175V58.75C33.75 59.0816 33.8817 59.3995 34.1161 59.6339C34.3505 59.8683 34.6685 60 35 60C35.3315 60 35.6495 59.8683 35.8839 59.6339C36.1183 59.3995 36.25 59.0816 36.25 58.75V41.25C36.25 40.2555 36.6451 39.3017 37.3484 38.5984C38.0516 37.8951 39.0054 37.5 40 37.5C40.9946 37.5 41.9484 37.8951 42.6516 38.5984C43.3549 39.3017 43.75 40.2555 43.75 41.25V56.3888C43.7522 58.1351 44.1586 59.8571 44.9375 61.42L45.395 62.3375C45.9999 63.5531 46.3146 64.8923 46.3146 66.25C46.3146 67.6078 45.9999 68.947 45.395 70.1625L44.145 72.6625C43.8855 73.1837 43.7503 73.7579 43.75 74.34V76.25C43.75 76.5816 43.8817 76.8995 44.1161 77.1339C44.3505 77.3683 44.6685 77.5 45 77.5C45.3315 77.5 45.6495 77.3683 45.8839 77.1339C46.1183 76.8995 46.25 76.5816 46.25 76.25V74.34C46.2487 74.1467 46.2915 73.9556 46.375 73.7813L47.625 71.2813C48.4025 69.7183 48.8071 67.9964 48.8071 66.2507C48.8071 64.505 48.4025 62.783 47.625 61.22L47.1675 60.3025C46.7193 59.4024 46.4289 58.4321 46.3088 57.4338C47.1206 58.2486 48.0856 58.8948 49.1481 59.3352C50.2106 59.7756 51.3498 60.0016 52.5 60C53.4946 60 54.4484 59.6049 55.1516 58.9017C55.8549 58.1984 56.25 57.2446 56.25 56.25V49.125C57.8633 48.7258 59.2982 47.8016 60.3287 46.4976C61.3592 45.1937 61.9269 43.5841 61.9425 41.9222C61.9581 40.2603 61.4207 38.6404 60.4149 37.3173C59.409 35.9943 57.9918 35.0432 56.3863 34.6138L63.2837 27.7063C63.5173 27.472 63.6485 27.1546 63.6485 26.8238C63.6485 26.4929 63.5173 26.1756 63.2837 25.9413ZM52.5 57.5C50.843 57.4981 49.2544 56.8389 48.0828 55.6673C46.9111 54.4956 46.252 52.907 46.25 51.25V44.75L47.205 43.795C47.599 45.2753 48.4379 46.599 49.6084 47.5871C50.7789 48.5752 52.2246 49.1801 53.75 49.32V56.25C53.75 56.5816 53.6183 56.8995 53.3839 57.1339C53.1495 57.3683 52.8315 57.5 52.5 57.5ZM52.6788 34.7913C52.4912 34.9767 52.367 35.2168 52.3242 35.477C52.2813 35.7373 52.3218 36.0045 52.44 36.2403C52.5582 36.4761 52.748 36.6685 52.9822 36.7899C53.2163 36.9114 53.4829 36.9556 53.7437 36.9163C54.7823 36.7693 55.8407 36.9526 56.7693 37.4403C57.6978 37.928 58.4496 38.6954 58.918 39.6338C59.3865 40.5722 59.5479 41.6342 59.3796 42.6695C59.2112 43.7047 58.7216 44.6608 57.9799 45.4025C57.2383 46.1441 56.2822 46.6338 55.2469 46.8021C54.2117 46.9705 53.1497 46.809 52.2113 46.3405C51.2728 45.8721 50.5055 45.1204 50.0178 44.1918C49.5301 43.2632 49.3468 42.2048 49.4938 41.1663C49.533 40.9055 49.4888 40.6389 49.3674 40.4047C49.246 40.1705 49.0536 39.9808 48.8178 39.8626C48.5819 39.7444 48.3148 39.7038 48.0545 39.7467C47.7942 39.7896 47.5542 39.9137 47.3688 40.1013L46.25 41.2225C46.2464 39.5649 45.5844 37.9767 44.4097 36.8072C43.235 35.6376 41.6439 34.9826 39.9863 34.9863C38.3286 34.9899 36.7404 35.6519 35.5709 36.8266C34.4013 38.0013 33.7464 39.5924 33.75 41.25V42.3825L31.4587 40.0913C31.2733 39.9037 31.0333 39.7796 30.773 39.7367C30.5127 39.6938 30.2456 39.7344 30.0097 39.8526C29.7739 39.9708 29.5815 40.1605 29.4601 40.3947C29.3387 40.6289 29.2945 40.8955 29.3337 41.1563C29.4807 42.1948 29.2974 43.2532 28.8097 44.1818C28.322 45.1104 27.5547 45.8621 26.6162 46.3305C25.6778 46.799 24.6158 46.9605 23.5806 46.7921C22.5453 46.6238 21.5892 46.1341 20.8476 45.3925C20.1059 44.6508 19.6163 43.6947 19.4479 42.6595C19.2796 41.6242 19.441 40.5622 19.9095 39.6238C20.3779 38.6854 21.1297 37.918 22.0582 37.4303C22.9868 36.9426 24.0452 36.7593 25.0837 36.9063C25.3447 36.9459 25.6115 36.9019 25.8459 36.7806C26.0803 36.6593 26.2703 36.467 26.3887 36.2311C26.507 35.9952 26.5477 35.7278 26.5048 35.4674C26.462 35.207 26.3377 34.9668 26.15 34.7813L18.2037 26.825L26.1588 18.875C26.3463 18.6896 26.4705 18.4496 26.5133 18.1893C26.5562 17.929 26.5157 17.6618 26.3975 17.426C26.2793 17.1902 26.0895 16.9978 25.8553 16.8764C25.6212 16.755 25.3546 16.7107 25.0938 16.75C24.0566 16.895 23.0001 16.7106 22.0734 16.223C21.1466 15.7353 20.3964 14.969 19.9285 14.0321C19.4606 13.0952 19.2987 12.0351 19.4656 11.0013C19.6325 9.96742 20.1198 9.01209 20.8587 8.27004C21.8118 7.36217 23.0775 6.85575 24.3937 6.85575C25.71 6.85575 26.9757 7.36217 27.9288 8.27004C28.4758 8.81849 28.8879 9.48653 29.1326 10.2215C29.3772 10.9564 29.4478 11.7382 29.3388 12.505C29.2995 12.7659 29.3437 13.0325 29.4651 13.2666C29.5865 13.5008 29.7789 13.6906 30.0147 13.8088C30.2506 13.9269 30.5177 13.9675 30.778 13.9246C31.0383 13.8817 31.2783 13.7576 31.4637 13.57L39.425 5.61754L45.0262 11.22C43.9435 11.7371 43.0007 12.5064 42.2769 13.4634C41.5531 14.4203 41.0694 15.537 40.8665 16.7195C40.6636 17.9021 40.7474 19.1161 41.1108 20.2596C41.4743 21.4031 42.1068 22.4427 42.9552 23.2911C43.8036 24.1395 44.8432 24.772 45.9867 25.1355C47.1302 25.4989 48.3442 25.5827 49.5267 25.3798C50.7093 25.1769 51.826 24.6932 52.7829 23.9694C53.7398 23.2456 54.5092 22.3028 55.0262 21.22L60.6287 26.8213L52.6788 34.7913ZM76.25 28.75H68.75C68.4185 28.75 68.1005 28.6183 67.8661 28.3839C67.6317 28.1495 67.5 27.8316 67.5 27.5C67.5 27.1685 67.6317 26.8506 67.8661 26.6162C68.1005 26.3817 68.4185 26.25 68.75 26.25H76.25C76.5815 26.25 76.8995 26.3817 77.1339 26.6162C77.3683 26.8506 77.5 27.1685 77.5 27.5C77.5 27.8316 77.3683 28.1495 77.1339 28.3839C76.8995 28.6183 76.5815 28.75 76.25 28.75ZM67.3988 14.375C67.1236 14.375 66.8561 14.2842 66.6378 14.1167C66.4195 13.9492 66.2626 13.7144 66.1914 13.4486C66.1202 13.1828 66.1387 12.9009 66.2439 12.6467C66.3492 12.3925 66.5355 12.1801 66.7738 12.0425L73.2738 8.29254C73.5607 8.1294 73.9005 8.08637 74.2191 8.17285C74.5376 8.25934 74.809 8.46831 74.9741 8.75417C75.1391 9.04003 75.1844 9.37957 75.1 9.69869C75.0157 10.0178 74.8085 10.2906 74.5238 10.4575L68.0238 14.2075C67.8339 14.3177 67.6182 14.3755 67.3988 14.375ZM73.8925 46.875C73.673 46.8755 73.4573 46.8177 73.2675 46.7075L66.7675 42.9575C66.6242 42.8761 66.4984 42.767 66.3974 42.6368C66.2964 42.5065 66.2222 42.3575 66.179 42.1984C66.1358 42.0393 66.1245 41.8733 66.1457 41.7098C66.167 41.5463 66.2204 41.3886 66.3028 41.2459C66.3852 41.1031 66.4951 40.9781 66.626 40.8779C66.757 40.7778 66.9064 40.7046 67.0658 40.6624C67.2252 40.6203 67.3913 40.6101 67.5547 40.6324C67.718 40.6548 67.8753 40.7092 68.0175 40.7925L74.5175 44.5425C74.7558 44.6801 74.942 44.8925 75.0473 45.1467C75.1526 45.4009 75.1711 45.6828 75.0999 45.9486C75.0286 46.2144 74.8717 46.4492 74.6534 46.6167C74.4351 46.7842 74.1677 46.875 73.8925 46.875ZM11.25 28.75H3.75C3.41848 28.75 3.10054 28.6183 2.86612 28.3839C2.6317 28.1495 2.5 27.8316 2.5 27.5C2.5 27.1685 2.6317 26.8506 2.86612 26.6162C3.10054 26.3817 3.41848 26.25 3.75 26.25H11.25C11.5815 26.25 11.8995 26.3817 12.1339 26.6162C12.3683 26.8506 12.5 27.1685 12.5 27.5C12.5 27.8316 12.3683 28.1495 12.1339 28.3839C11.8995 28.6183 11.5815 28.75 11.25 28.75ZM12.6013 14.375C12.3818 14.3755 12.1661 14.3177 11.9763 14.2075L5.47625 10.4575C5.19149 10.2906 4.98432 10.0178 4.89995 9.69869C4.81558 9.37957 4.86086 9.04003 5.02591 8.75417C5.19095 8.46831 5.46237 8.25934 5.78092 8.17285C6.09947 8.08637 6.4393 8.1294 6.72625 8.29254L13.2263 12.0425C13.4645 12.1801 13.6508 12.3925 13.7561 12.6467C13.8613 12.9009 13.8798 13.1828 13.8086 13.4486C13.7374 13.7144 13.5805 13.9492 13.3622 14.1167C13.1439 14.2842 12.8764 14.375 12.6013 14.375ZM6.1075 46.875C5.83234 46.875 5.56488 46.7842 5.34658 46.6167C5.12829 46.4492 4.97137 46.2144 4.90015 45.9486C4.82893 45.6828 4.8474 45.4009 4.95269 45.1467C5.05798 44.8925 5.24421 44.6801 5.4825 44.5425L11.9825 40.7925C12.1247 40.7092 12.282 40.6548 12.4453 40.6324C12.6087 40.6101 12.7748 40.6203 12.9342 40.6624C13.0936 40.7046 13.243 40.7778 13.374 40.8779C13.5049 40.9781 13.6148 41.1031 13.6972 41.2459C13.7796 41.3886 13.833 41.5463 13.8543 41.7098C13.8755 41.8733 13.8642 42.0393 13.821 42.1984C13.7778 42.3575 13.7036 42.5065 13.6026 42.6368C13.5016 42.767 13.3758 42.8761 13.2325 42.9575L6.7325 46.7075C6.54266 46.8177 6.32699 46.8755 6.1075 46.875Z" fill="#F3D465"/>
</svg>
