<svg width="64" height="64" viewBox="0 0 64 64" fill="none" xmlns="http://www.w3.org/2000/svg">
<g clip-path="url(#clip0_8851_1801)">
<path d="M63.7392 26.9199L53.0274 13.0049C52.8362 12.7566 52.559 12.5888 52.2503 12.5346C51.9417 12.4803 51.6239 12.5435 51.3594 12.7118L44.4434 17.1103H35.4234C35.3067 17.1103 35.1904 17.1352 35.0782 17.1678L28.0844 19.181L20.8277 17.1962L13.7764 12.7118C13.5163 12.5461 13.2042 12.4821 12.8998 12.532C12.5954 12.5819 12.3201 12.7422 12.1264 12.9823L0.278448 27.6582C-0.147427 28.1854 -0.0770518 28.9555 0.436573 29.3974L6.64657 34.7417L12.2178 42.2494C10.5884 43.9853 10.6202 46.7232 12.3154 48.4189C13.0669 49.1698 14.0226 49.5942 15.0054 49.6928C14.971 49.9172 14.9537 50.144 14.9537 50.371C14.9537 51.5555 15.4151 52.6693 16.2524 53.5068C17.0904 54.3447 18.2042 54.806 19.3887 54.806C19.4049 54.806 19.4204 54.805 19.4362 54.8045C19.4356 54.8349 19.4342 54.8647 19.4342 54.8949C19.4342 56.0795 19.8956 57.1933 20.7329 58.0312C21.5708 58.8687 22.6847 59.3299 23.8692 59.3299C24.1011 59.3296 24.3326 59.3115 24.5617 59.2758C24.66 60.2967 25.1109 61.2515 25.8369 61.976C26.7012 62.8408 27.8369 63.2729 28.9727 63.2729C30.1084 63.2729 31.2442 62.8408 32.1089 61.976L32.7872 61.2978L33.0718 61.5273C33.9293 62.3578 35.0426 62.7729 36.1558 62.7729C37.2916 62.7729 38.4273 62.3408 39.2916 61.476C40.1739 60.5937 40.6061 59.4292 40.5879 58.2704C41.7462 58.2879 42.9112 57.8564 43.7936 56.9745C44.6748 56.0927 45.1069 54.9292 45.0898 53.7709C46.2964 53.7899 47.4411 53.3265 48.2949 52.4725C49.1773 51.5903 49.6094 50.4257 49.5913 49.267C50.7506 49.2845 51.9146 48.8529 52.7969 47.9707C54.3028 46.4648 54.4967 44.1372 53.3799 42.4189L57.4478 33.8993L63.5636 28.6367C64.0689 28.2017 64.1461 27.4477 63.7393 26.9198L63.7392 26.9199ZM13.3749 15.4312L18.4453 18.6552L7.41545 32.0927L2.99545 28.2885L13.3749 15.4312ZM14.0903 43.9213L15.6206 42.391C15.9397 42.0717 16.3612 41.875 16.8109 41.8354C16.8217 41.8344 16.8329 41.8344 16.8437 41.8339C16.8984 41.8295 16.9531 41.8265 17.0082 41.827C17.5327 41.8344 18.0199 42.0488 18.3813 42.43C19.0903 43.1795 19.0522 44.4042 18.2963 45.16L16.8124 46.6439C16.0619 47.3944 14.8408 47.3944 14.0903 46.6439C13.3398 45.893 13.3398 44.6718 14.0903 43.9214V43.9213ZM18.0273 51.7318C17.6636 51.3685 17.4633 50.8852 17.4633 50.371C17.4633 49.8569 17.6636 49.3735 18.0273 49.0098L20.9946 46.0423C21.5629 45.474 22.4564 45.3183 23.1831 45.6644C23.9321 46.0214 24.3534 46.8344 24.2436 47.6523C24.184 48.091 23.9827 48.4982 23.6703 48.8119L20.7499 51.7319C20.3862 52.0957 19.9028 52.2958 19.3887 52.2958C18.8746 52.2958 18.3911 52.0957 18.0273 51.7318ZM22.5078 56.2558C22.3284 56.0776 22.1862 55.8655 22.0894 55.6319C21.9926 55.3983 21.9431 55.1478 21.9438 54.8949C21.9432 54.642 21.9927 54.3914 22.0895 54.1578C22.1863 53.9241 22.3285 53.712 22.5078 53.5337L25.4746 50.5663C26.0824 49.9588 27.0576 49.828 27.8017 50.2612C28.4814 50.6567 28.8373 51.433 28.7207 52.2064C28.6555 52.634 28.4557 53.0296 28.1503 53.3359L25.2303 56.2558C24.8666 56.6195 24.3832 56.8198 23.8691 56.8198C23.3549 56.8198 22.8716 56.6195 22.5078 56.2558ZM27.6113 60.201C26.8608 59.4505 26.8608 58.2294 27.6113 57.4789L29.1416 55.9487C29.1886 55.9017 29.238 55.857 29.2894 55.8149C29.5366 55.6139 29.83 55.4776 30.1431 55.4184L30.1649 55.4154C30.2187 55.4057 30.2734 55.3979 30.3281 55.3929C30.3501 55.391 30.3721 55.391 30.3944 55.3895C30.4394 55.387 30.4838 55.3842 30.5292 55.3847C30.8192 55.3878 31.1047 55.4569 31.3641 55.5867C31.6234 55.7164 31.8499 55.9035 32.0263 56.1337C32.6034 56.888 32.5258 58.0087 31.8096 58.7255L30.3334 60.2015C29.5829 60.952 28.3618 60.9515 27.6113 60.201ZM51.0219 46.1957C50.2714 46.9467 49.0502 46.9462 48.2997 46.1957C48.2725 46.1687 48.244 46.1431 48.2143 46.119L40.1449 37.9649C39.6572 37.4722 38.8627 37.4683 38.3699 37.9562C37.8774 38.4434 37.8734 39.2378 38.3608 39.7305L46.5176 47.9722L46.5204 47.9752C47.2709 48.7257 47.2709 49.9473 46.5204 50.6978C46.3421 50.8771 46.13 51.0193 45.8963 51.1161C45.6627 51.2129 45.4121 51.2625 45.1592 51.2618C44.9062 51.2626 44.6556 51.2131 44.422 51.1163C44.1883 51.0195 43.9761 50.8772 43.7978 50.6978L38.3412 45.1847C37.8539 44.6919 37.0596 44.688 36.5668 45.1753C36.0742 45.6632 36.0702 46.4575 36.5576 46.9503L41.9306 52.379C41.9581 52.4132 41.9872 52.4458 42.0184 52.477C42.7689 53.2275 42.7689 54.4493 42.0184 55.1998C41.2676 55.9503 40.0459 55.9498 39.2953 55.1993L36.3174 52.1899C35.8297 51.6972 35.0352 51.6928 34.5424 52.1805C34.0499 52.6679 34.0459 53.4623 34.5333 53.955L37.4283 56.8798C37.4557 56.914 37.4849 56.9473 37.5167 56.9785C38.2672 57.7289 38.2672 58.9505 37.5167 59.701C36.7662 60.452 35.5449 60.4515 34.7944 59.701C34.7082 59.6147 34.6066 59.5483 34.5098 59.474C34.4278 59.4115 34.4063 59.368 34.4473 59.2684C34.4888 59.1674 34.5508 59.076 34.5923 58.9745C34.6382 58.8613 34.6753 58.7445 34.7114 58.6274C34.9044 58.0031 34.9599 57.3444 34.8741 56.6967C34.7081 55.4618 34.0288 54.3475 32.9996 53.6425C32.4411 53.2612 31.8024 53.0136 31.1328 52.9188C31.4561 51.493 31.0679 49.9472 30.0582 48.8803C29.2271 48.0024 28.1044 47.5097 26.8969 47.493C26.8529 47.4925 26.8088 47.4925 26.7647 47.493C26.7916 46.3408 26.3726 45.1957 25.5782 44.3564C24.7467 43.4784 23.6241 42.9858 22.4169 42.9692C22.0582 42.9642 21.6958 43.0024 21.3463 43.0829C21.1968 42.0434 20.6729 41.0814 19.8794 40.3934C19.0909 39.7109 18.0992 39.3319 17.0431 39.3173C15.9312 39.3012 14.8389 39.7113 14.0132 40.4569L9.1622 33.9203L20.7677 19.7815L24.4664 20.7934L19.6358 29.3173C19.0518 30.348 18.9043 31.5443 19.2203 32.686C19.5362 33.828 20.2774 34.7783 21.3082 35.3623C21.3726 35.3988 21.4376 35.4335 21.5034 35.4667C21.5084 35.4692 21.5132 35.4717 21.5186 35.474C21.691 35.5598 21.8688 35.6343 22.0508 35.6972C22.8921 35.9887 23.8008 36.0204 24.6773 35.7783C25.8189 35.4623 26.7691 34.7207 27.3531 33.6903L30.4922 28.1508L36.0972 28.5483L51.0224 43.473C51.7724 44.224 51.7724 45.4452 51.0219 46.1957ZM51.5419 40.4432L37.5404 26.4424C37.3268 26.2289 37.0433 26.0996 36.7421 26.0782L29.8793 25.5913C29.4047 25.5587 28.9331 25.811 28.6987 26.2247L25.1693 32.4532C25.0452 32.6735 24.8787 32.867 24.6793 33.0226C24.4799 33.1781 24.2517 33.2926 24.0078 33.3594C23.7642 33.4275 23.5095 33.4466 23.2585 33.4156C23.0074 33.3846 22.7651 33.3041 22.5453 33.1788C22.325 33.0547 22.1314 32.8881 21.9759 32.6887C21.8203 32.4893 21.7058 32.2611 21.6391 32.0172C21.5709 31.7736 21.5517 31.5188 21.5828 31.2678C21.6138 31.0167 21.6944 30.7743 21.8198 30.5547L26.5312 22.2398L28.4403 21.6904C28.4531 21.6867 28.4653 21.6817 28.4779 21.6778L35.6034 19.6202H44.2128L54.9609 33.2833L51.5419 40.4432ZM56.6049 31.3134L46.6654 18.6712L51.7382 15.445L61.0258 27.509L56.6049 31.3134Z" fill="#7D3CF3"/>
<path d="M38.7731 14.7538C39.0943 14.7538 39.4156 14.6313 39.6607 14.3862L48.233 5.81396C48.7232 5.32371 48.7232 4.52921 48.233 4.03896C47.7427 3.54871 46.9484 3.54883 46.4581 4.03896L37.8859 12.6113C37.7693 12.7279 37.6768 12.8662 37.6137 13.0185C37.5507 13.1707 37.5182 13.334 37.5182 13.4988C37.5182 13.6636 37.5507 13.8268 37.6137 13.9791C37.6768 14.1313 37.7693 14.2697 37.8859 14.3862C38.0022 14.5029 38.1405 14.5954 38.2928 14.6585C38.4451 14.7216 38.6083 14.754 38.7731 14.7538ZM24.3395 14.3862C24.4559 14.5029 24.5943 14.5955 24.7466 14.6586C24.8989 14.7217 25.0622 14.754 25.2271 14.7538C25.548 14.7538 25.8692 14.6313 26.1144 14.3862C26.2309 14.2697 26.3234 14.1313 26.3865 13.979C26.4496 13.8268 26.4821 13.6635 26.4821 13.4987C26.4821 13.3339 26.4496 13.1707 26.3865 13.0184C26.3234 12.8661 26.2309 12.7277 26.1144 12.6112L17.5421 4.03896C17.0519 3.54883 16.2575 3.54883 15.7671 4.03896C15.2767 4.52908 15.277 5.32371 15.7671 5.81396L24.3395 14.3862ZM32.0001 14.7538C32.693 14.7538 33.2551 14.1918 33.2551 13.499V6.40471C33.2551 5.71183 32.693 5.14983 32.0001 5.14983C31.3072 5.14983 30.7451 5.71183 30.7451 6.40483V13.499C30.7451 14.1918 31.3072 14.7538 32.0001 14.7538ZM30.8419 1.85646C31.0411 2.33933 31.5377 2.65621 32.0616 2.62896C32.5791 2.60196 33.0339 2.25246 33.194 1.75971C33.3546 1.26308 33.1797 0.697206 32.7637 0.380832C32.3395 0.0575815 31.7476 0.0395815 31.3037 0.332957C30.8087 0.660082 30.6169 1.31146 30.8419 1.85646Z" fill="#7D3CF3"/>
</g>
<defs>
<clipPath id="clip0_8851_1801">
<rect width="64" height="64" fill="white"/>
</clipPath>
</defs>
</svg>
