<svg width="64" height="64" viewBox="0 0 64 64" fill="none" xmlns="http://www.w3.org/2000/svg">
<path d="M46.1928 12.3972C44.5438 13.4391 43.278 14.9884 42.5858 16.8119C41.8936 18.6355 41.8126 20.6345 42.3549 22.5081C42.8972 24.3817 44.0334 26.0284 45.5926 27.2003C47.1518 28.3722 49.0495 29.0058 51 29.0058C52.9505 29.0058 54.8482 28.3722 56.4074 27.2003C57.9666 26.0284 59.1029 24.3817 59.6452 22.5081C60.1875 20.6345 60.1064 18.6355 59.4142 16.8119C58.722 14.9884 57.4562 13.4391 55.8073 12.3972L53.2698 7.95775C53.5707 7.60895 53.7872 7.19551 53.9025 6.74951C54.0178 6.30351 54.0288 5.83694 53.9347 5.386C53.8406 4.93505 53.6438 4.51186 53.3597 4.14924C53.0756 3.78663 52.7117 3.49434 52.2964 3.29506C51.8811 3.09578 51.4254 2.99486 50.9648 3.00014C50.5041 3.00541 50.0509 3.11674 49.6403 3.32547C49.2296 3.53421 48.8726 3.83475 48.5968 4.20378C48.3211 4.5728 48.134 5.00039 48.0503 5.45337L35.6688 7.4085C35.448 6.90262 35.1254 6.44764 34.7211 6.07189C34.3168 5.69614 33.8394 5.40769 33.3188 5.2245L32.9908 2.862C32.9576 2.6229 32.839 2.40387 32.657 2.24535C32.4749 2.08683 32.2417 1.99951 32.0003 1.99951C31.7589 1.99951 31.5256 2.08683 31.3436 2.24535C31.1615 2.40387 31.043 2.6229 31.0098 2.862L30.6818 5.2245C29.9609 5.47741 29.3273 5.93104 28.8556 6.53196C28.3839 7.13288 28.0937 7.85607 28.0193 8.61637L15.6375 10.5714C15.4373 10.2008 15.1612 9.87651 14.8272 9.61972C14.4933 9.36293 14.109 9.17937 13.6994 9.08099C13.2898 8.98262 12.8641 8.97164 12.4499 9.04878C12.0358 9.12591 11.6426 9.28942 11.2959 9.52866C10.9491 9.7679 10.6567 10.0775 10.4376 10.4373C10.2185 10.7971 10.0777 11.199 10.0243 11.6169C9.97086 12.0347 10.0061 12.4591 10.1276 12.8625C10.2492 13.2658 10.4544 13.639 10.7298 13.9577L8.19226 18.3972C6.54333 19.4391 5.27747 20.9884 4.58529 22.8119C3.89311 24.6355 3.81207 26.6345 4.35437 28.5081C4.89666 30.3817 6.03295 32.0284 7.59214 33.2003C9.15133 34.3722 11.049 35.0058 12.9995 35.0058C14.95 35.0058 16.8477 34.3722 18.4069 33.2003C19.9661 32.0284 21.1024 30.3817 21.6447 28.5081C22.187 26.6345 22.1059 24.6355 21.4137 22.8119C20.7216 20.9884 19.4557 19.4391 17.8068 18.3972L15.2693 13.9577C15.6168 13.5561 15.8511 13.0691 15.948 12.5469L28.3301 10.5919C28.6249 11.2667 29.0993 11.8478 29.7015 12.2716L26.0095 38.8626C25.9899 39.0042 26.0008 39.1484 26.0416 39.2854C26.0823 39.4224 26.152 39.549 26.2459 39.6568C26.3397 39.7646 26.4556 39.851 26.5857 39.9103C26.7158 39.9695 26.8571 40.0001 27 40.0001H37C37.1429 40.0001 37.2842 39.9695 37.4143 39.9103C37.5444 39.851 37.6603 39.7646 37.7542 39.6568C37.848 39.549 37.9177 39.4224 37.9585 39.2854C37.9992 39.1484 38.0102 39.0042 37.9905 38.8626L34.2974 12.2716C34.7696 11.9402 35.1646 11.5105 35.4553 11.0121C35.7459 10.5137 35.9253 9.95837 35.9811 9.38412L48.3625 7.42887C48.4656 7.61779 48.5886 7.7951 48.7295 7.95775L46.1928 12.3972ZM13 11.0001C13.1978 11.0001 13.3911 11.0588 13.5556 11.1687C13.72 11.2785 13.8482 11.4347 13.9239 11.6174C13.9996 11.8002 14.0194 12.0012 13.9808 12.1952C13.9422 12.3892 13.847 12.5674 13.7071 12.7072C13.5673 12.8471 13.3891 12.9423 13.1951 12.9809C13.0011 13.0195 12.8001 12.9997 12.6173 12.924C12.4346 12.8483 12.2784 12.7201 12.1685 12.5557C12.0587 12.3912 12 12.1979 12 12.0001C12.0003 11.735 12.1058 11.4808 12.2932 11.2933C12.4807 11.1059 12.7349 11.0004 13 11.0001ZM20 26.0001C20 27.3846 19.5895 28.738 18.8203 29.8891C18.0511 31.0403 16.9579 31.9375 15.6788 32.4673C14.3997 32.9971 12.9922 33.1357 11.6344 32.8656C10.2765 32.5955 9.02923 31.9288 8.05027 30.9499C7.0713 29.9709 6.40461 28.7236 6.13452 27.3658C5.86442 26.0079 6.00304 24.6004 6.53286 23.3213C7.06267 22.0423 7.95988 20.949 9.11102 20.1798C10.2622 19.4107 11.6155 19.0001 13 19.0001C14.8559 19.0022 16.6351 19.7404 17.9474 21.0527C19.2597 22.365 19.9979 24.1443 20 26.0001ZM13 17.0001C12.3921 16.9998 11.7857 17.0611 11.1901 17.183L12.4651 14.9515C12.8187 15.0163 13.1811 15.0163 13.5346 14.9515L14.8096 17.183C14.2141 17.0611 13.6078 16.9999 13 17.0001ZM32 7.00012C32.3956 7.00012 32.7823 7.11742 33.1112 7.33718C33.4401 7.55695 33.6964 7.86931 33.8478 8.23476C33.9991 8.60021 34.0388 9.00234 33.9616 9.3903C33.8844 9.77827 33.6939 10.1346 33.4142 10.4143C33.1345 10.694 32.7782 10.8845 32.3902 10.9617C32.0022 11.0389 31.6001 10.9993 31.2346 10.8479C30.8692 10.6965 30.5568 10.4402 30.3371 10.1113C30.1173 9.78237 30 9.39569 30 9.00012C30.0006 8.46988 30.2116 7.96154 30.5865 7.5866C30.9614 7.21167 31.4698 7.00075 32 7.00012ZM35.8515 38.0001H28.1485L31.6235 12.9819C31.7476 12.9935 31.8735 13.0001 32.0003 13.0001C32.127 13.0001 32.2529 12.9935 32.377 12.9819L35.8515 38.0001ZM58 20.0001C58 21.3846 57.5895 22.738 56.8203 23.8891C56.0511 25.0403 54.9579 25.9375 53.6788 26.4673C52.3997 26.9971 50.9922 27.1357 49.6344 26.8656C48.2765 26.5955 47.0292 25.9288 46.0503 24.9499C45.0713 23.9709 44.4046 22.7236 44.1345 21.3658C43.8644 20.0079 44.003 18.6004 44.5329 17.3213C45.0627 16.0423 45.9599 14.949 47.111 14.1798C48.2622 13.4107 49.6155 13.0001 51 13.0001C52.8559 13.0022 54.6351 13.7404 55.9474 15.0527C57.2597 16.365 57.9979 18.1443 58 20.0001ZM51 11.0001C50.3921 10.9998 49.7857 11.0611 49.1901 11.183L50.4651 8.9515C50.8187 9.01633 51.1811 9.01633 51.5346 8.9515L52.8096 11.183C52.2141 11.0611 51.6078 10.9999 51 11.0001ZM51 5.00012C51.1978 5.00012 51.3911 5.05877 51.5556 5.16865C51.72 5.27854 51.8482 5.43471 51.9239 5.61744C51.9996 5.80017 52.0194 6.00123 51.9808 6.19521C51.9422 6.3892 51.847 6.56738 51.7071 6.70723C51.5673 6.84708 51.3891 6.94232 51.1951 6.98091C51.0011 7.01949 50.8001 6.99969 50.6173 6.924C50.4346 6.84832 50.2784 6.72014 50.1685 6.55569C50.0587 6.39124 50 6.19791 50 6.00012C50.0003 5.735 50.1058 5.48082 50.2932 5.29335C50.4807 5.10587 50.7349 5.00042 51 5.00012Z" fill="white"/>
<path d="M10.7071 26.2929C10.6143 26.2 10.504 26.1264 10.3827 26.0761C10.2614 26.0259 10.1313 26 10 26C9.86867 26 9.73864 26.0259 9.61731 26.0761C9.49598 26.1264 9.38574 26.2 9.29288 26.2929C9.20001 26.3858 9.12635 26.496 9.0761 26.6173C9.02584 26.7387 8.99997 26.8687 8.99997 27C8.99997 27.1314 9.02584 27.2614 9.0761 27.3827C9.12635 27.504 9.20001 27.6143 9.29288 27.7072L11.2929 29.7072C11.3857 29.8 11.496 29.8737 11.6173 29.9239C11.7386 29.9742 11.8687 30.0001 12 30.0001C12.1313 30.0001 12.2614 29.9742 12.3827 29.9239C12.504 29.8737 12.6143 29.8 12.7071 29.7072L17.7071 24.7072C17.8947 24.5196 18 24.2652 18 24C18 23.7348 17.8947 23.4804 17.7071 23.2929C17.5196 23.1054 17.2652 23 17 23C16.7348 23 16.4804 23.1054 16.2929 23.2929L12 27.5859L10.7071 26.2929ZM48.7071 16.2929C48.5196 16.1054 48.2652 16 48 16C47.7348 16 47.4804 16.1054 47.2929 16.2929C47.1053 16.4804 47 16.7348 47 17C47 17.2652 47.1053 17.5196 47.2929 17.7072L49.5859 20L47.2929 22.2929C47.1053 22.4804 47 22.7348 47 23C47 23.2652 47.1053 23.5196 47.2929 23.7072C47.4804 23.8947 47.7348 24.0001 48 24.0001C48.2652 24.0001 48.5196 23.8947 48.7071 23.7072L51 21.4142L53.2929 23.7072C53.4804 23.8947 53.7348 24.0001 54 24.0001C54.2652 24.0001 54.5196 23.8947 54.7071 23.7072C54.8947 23.5196 55 23.2652 55 23C55 22.7348 54.8947 22.4804 54.7071 22.2929L52.4141 20L54.7071 17.7072C54.8 17.6143 54.8736 17.504 54.9239 17.3827C54.9742 17.2614 55 17.1314 55 17C55 16.8687 54.9742 16.7387 54.9239 16.6173C54.8736 16.496 54.8 16.3858 54.7071 16.2929C54.6143 16.2 54.504 16.1264 54.3827 16.0761C54.2614 16.0259 54.1313 16 54 16C53.8687 16 53.7386 16.0259 53.6173 16.0761C53.496 16.1264 53.3857 16.2 53.2929 16.2929L51 18.5859L48.7071 16.2929ZM61.9046 47.9552C61.556 47.0874 60.9032 46.3762 60.0684 45.9547C59.2336 45.5332 58.2738 45.4302 57.3685 45.6649L37.1115 50.95L32.5916 49.142L35.0924 48.5198C35.8791 48.3233 36.5644 47.841 37.0149 47.1668C37.4654 46.4926 37.6488 45.6749 37.5293 44.8729C37.4098 44.0709 36.996 43.3421 36.3686 42.8286C35.7411 42.315 34.9449 42.0534 34.1351 42.0948L17.0195 43L13 42.997V42C13 41.7348 12.8946 41.4805 12.7071 41.2929C12.5196 41.1054 12.2652 41 12 41H3C2.73478 41 2.48043 41.1054 2.29289 41.2929C2.10536 41.4805 2 41.7348 2 42V60C2 60.2652 2.10536 60.5196 2.29289 60.7071C2.48043 60.8947 2.73478 61 3 61H12C12.2652 61 12.5196 60.8947 12.7071 60.7071C12.8946 60.5196 13 60.2652 13 60V58.8682L19 58.0165L35.8167 61.9734C36.0122 62.0193 36.2169 62.0054 36.4043 61.9334L59.7168 52.967C60.1916 52.7844 60.6254 52.5093 60.9931 52.1576C61.3607 51.8059 61.6548 51.3847 61.8583 50.9184C62.0619 50.4522 62.1707 49.9501 62.1786 49.4414C62.1865 48.9327 62.0932 48.4275 61.9043 47.9552H61.9046ZM11 59H4V43H11V59ZM60.0256 50.1184C59.9287 50.3423 59.7879 50.5445 59.6116 50.7131C59.4353 50.8818 59.227 51.0134 58.999 51.1003L35.975 59.9559L19.275 56.0267C19.154 55.998 19.0286 55.9924 18.9055 56.01L13 56.8482V44.997L17.0448 45C17.0619 45 17.0805 45 17.0984 44.9987L34.2375 44.0917C34.4661 44.0802 34.6935 44.1311 34.8955 44.2389C35.0974 44.3467 35.2662 44.5073 35.384 44.7036C35.5017 44.8999 35.5638 45.1245 35.5638 45.3534C35.5638 45.5823 35.5015 45.8069 35.3838 46.0032C35.2989 46.1455 35.1866 46.2696 35.0535 46.3683C34.9203 46.467 34.7689 46.5384 34.608 46.5782L24.758 49.0293C24.6298 49.0602 24.5089 49.1162 24.4024 49.1941C24.2959 49.272 24.2059 49.3701 24.1375 49.4829C24.0691 49.5957 24.0237 49.721 24.0039 49.8514C23.9842 49.9818 23.9904 50.1149 24.0222 50.2429C24.0541 50.3709 24.111 50.4913 24.1896 50.5973C24.2682 50.7032 24.367 50.7925 24.4803 50.8601C24.5935 50.9277 24.7191 50.9722 24.8496 50.9911C24.9802 51.0099 25.1132 51.0028 25.241 50.97L29.2712 49.9672L36.6738 52.9282C36.8722 53.0074 37.0907 53.0211 37.2975 52.9673L57.8725 47.5998C58.2069 47.5125 58.5591 47.5212 58.8888 47.6247C59.2185 47.7282 59.5124 47.9224 59.737 48.1851C59.9615 48.4478 60.1076 48.7684 60.1584 49.1103C60.2093 49.4521 60.163 49.8013 60.0247 50.118L60.0256 50.1184Z" fill="white"/>
</svg>
