<svg width="64" height="64" viewBox="0 0 64 64" fill="none" xmlns="http://www.w3.org/2000/svg">
<path d="M18.7305 34.3538V32.2031C18.7305 30.0855 20.7848 28.3688 23.319 28.3688H28.9087C30.5614 28.3688 31.9011 29.7085 31.9011 31.3612C31.9011 33.014 30.5614 34.3537 28.9087 34.3537H24.0292M38.6683 38.7789C40.169 39.4699 41.9457 38.8134 42.6367 37.3126L44.993 32.1942C45.684 30.6934 45.0275 28.9167 43.5266 28.2258C42.0259 27.5349 40.2492 28.1913 39.5583 29.6922L37.2019 34.8107C36.5111 36.3113 37.1675 38.088 38.6683 38.7789Z" stroke="white" stroke-width="2.8" stroke-miterlimit="10"/>
<path d="M33.09 29.4169L35.4464 24.2984C36.1373 22.7977 35.4809 21.021 33.98 20.33C32.4793 19.6391 30.7026 20.2956 30.0117 21.7964L27.6553 26.9149M33.0302 36.7212C34.5309 37.4121 36.3076 36.7556 36.9985 35.2549L40.352 27.9707C41.0889 26.3701 40.2996 24.8259 38.8856 24.0023C37.3848 23.3114 35.6081 23.9679 34.9172 25.4687L31.5639 32.7529C30.873 34.2536 31.5294 36.0303 33.0302 36.7212Z" stroke="white" stroke-width="2.8" stroke-miterlimit="10"/>
<path d="M27.0076 28.3776L30.361 21.0935C31.0979 19.4928 30.3086 17.9487 28.8946 17.1251C27.3939 16.4342 25.6172 17.0906 24.9263 18.5915L19.8085 29.7355M39.4454 54.5634V47.4891C40.9701 46.5692 41.99 44.897 41.99 42.9859V38.2211M18.7305 34.0908V40.853C18.7305 43.0345 19.6765 44.994 21.1796 46.3463V53.428M31.9016 35.8175V44.7807" stroke="white" stroke-width="2.8" stroke-miterlimit="10"/>
<path d="M32 56C45.2548 56 56 45.2548 56 32C56 18.7452 45.2548 8 32 8C18.7452 8 8 18.7452 8 32C8 45.2548 18.7452 56 32 56Z" stroke="white" stroke-width="2.8" stroke-miterlimit="10"/>
</svg>
