<svg width="33" height="32" viewBox="0 0 33 32" fill="none" xmlns="http://www.w3.org/2000/svg">
<g clip-path="url(#clip0_8049_4152)">
<path d="M24.3538 29.3953C24.1019 29.3953 23.8446 29.3633 23.5897 29.2967L2.97046 23.7751C1.37986 23.3363 0.431837 21.691 0.84791 20.1017L3.11453 11.4096C3.25322 10.876 3.79861 10.552 4.33456 10.6949C4.86801 10.8336 5.18927 11.3802 5.04939 11.9149L2.78252 20.6084C2.64264 21.1443 2.96128 21.6976 3.49473 21.8443L24.1019 27.3632C24.6313 27.5032 25.1779 27.1885 25.3166 26.6618L26.0204 23.8216C26.154 23.2857 26.6953 22.9603 27.2312 23.0912C27.7673 23.2245 28.094 23.7657 27.9618 24.3016L27.2553 27.1552C26.8991 28.5059 25.6833 29.3953 24.3539 29.3953L24.3538 29.3953Z" fill="white"/>
<path d="M29.7494 21.3956H9.08211C7.42757 21.3956 6.08203 20.0501 6.08203 18.3955V3.0616C6.08203 1.40706 7.42757 0.0615234 9.08211 0.0615234H29.7494C31.404 0.0615234 32.7495 1.40706 32.7495 3.0616V18.3955C32.7495 20.0501 31.404 21.3956 29.7494 21.3956ZM9.08211 2.06157C8.53009 2.06157 8.08208 2.50959 8.08208 3.0616V18.3955C8.08208 18.9475 8.53009 19.3955 9.08211 19.3955H29.7494C30.3014 19.3955 30.7494 18.9475 30.7494 18.3955V3.0616C30.7494 2.50959 30.3014 2.06157 29.7494 2.06157H9.08211Z" fill="white"/>
<path d="M12.7492 9.39516C11.2785 9.39516 10.0824 8.19907 10.0824 6.72834C10.0824 5.25762 11.2785 4.06152 12.7492 4.06152C14.2199 4.06152 15.4158 5.25762 15.4158 6.72834C15.4158 8.19907 14.22 9.39516 12.7492 9.39516ZM12.7492 6.06157C12.3811 6.06157 12.0824 6.36039 12.0824 6.72834C12.0824 7.09629 12.3811 7.39511 12.7492 7.39511C13.1171 7.39511 13.4157 7.09629 13.4157 6.72834C13.4157 6.36039 13.1171 6.06157 12.7492 6.06157ZM7.10893 20.0353C6.85305 20.0353 6.59698 19.9379 6.40235 19.7421C6.01172 19.3515 6.01172 18.7179 6.40235 18.3273L12.4291 12.3005C13.3413 11.3884 14.8252 11.3884 15.7358 12.3005L17.3479 13.9126L22.2999 7.96837C22.7426 7.43761 23.3921 7.13098 24.0815 7.1271C24.8228 7.08579 25.4228 7.42292 25.8694 7.94712L32.5071 15.6913C32.8669 16.11 32.8176 16.742 32.3989 17.1019C31.9789 17.4621 31.3483 17.4127 30.9882 16.994L24.3481 9.24722C24.26 9.14172 24.1521 9.14709 24.092 9.12834C24.0349 9.12834 23.924 9.14565 23.8362 9.24966L18.1827 16.0367C18.0025 16.2525 17.7401 16.3834 17.46 16.3953C17.1746 16.4112 16.9053 16.3018 16.7078 16.1033L14.3213 13.7166C14.1519 13.5471 14.0119 13.5471 13.8425 13.7166L7.81576 19.7421C7.72319 19.8353 7.61305 19.9092 7.49172 19.9595C7.37039 20.0098 7.24028 20.0356 7.10893 20.0353Z" fill="white"/>
</g>
<defs>
<clipPath id="clip0_8049_4152">
<rect width="32" height="32" fill="white" transform="translate(0.75)"/>
</clipPath>
</defs>
</svg>
