<svg width="64" height="64" viewBox="0 0 64 64" fill="none" xmlns="http://www.w3.org/2000/svg">
<path d="M49.434 17.2261C44.69 17.2261 40.332 20.8201 36.708 24.0981C35.0657 25.5844 33.4959 27.1489 32.004 28.7861C30.5175 27.1457 28.9495 25.5811 27.306 24.0981C23.68 20.8201 19.328 17.2261 14.582 17.2261C6.54 17.2261 0 23.8821 0 32.0001C0 40.1181 6.54 46.7741 14.582 46.7741C19.328 46.7741 23.684 43.1801 27.306 39.9021C28.9475 38.417 30.5154 36.8524 32.004 35.2141C33.4938 36.8533 35.0637 38.4178 36.708 39.9021C40.334 43.1801 44.69 46.7741 49.434 46.7741C57.474 46.7741 64 40.1181 64 32.0001C64 23.8821 57.476 17.2261 49.434 17.2261ZM24.442 36.7421C21.072 39.7841 16.714 42.5041 14.582 42.5041C8.878 42.5041 4.266 37.8441 4.266 32.0001C4.266 26.1561 8.882 21.4961 14.582 21.4961C16.71 21.4961 21.072 24.2141 24.442 27.2581C27.058 29.6221 28.222 31.0541 29.044 32.0001C28.22 32.9461 27.056 34.3781 24.442 36.7421ZM49.434 42.5041C47.306 42.5041 42.942 39.7861 39.572 36.7421C36.962 34.3821 35.794 32.9461 34.972 32.0001C35.794 31.0541 36.962 29.6181 39.572 27.2581C42.942 24.2161 47.302 21.4961 49.434 21.4961C55.138 21.4961 59.732 26.1561 59.732 32.0001C59.732 37.8441 55.136 42.5041 49.434 42.5041Z" fill="#C1C1C1"/>
</svg>
