<svg width="28" height="28" viewBox="0 0 28 28" fill="none" xmlns="http://www.w3.org/2000/svg">
<path d="M22.6284 25.6809H14C7.245 25.6809 1.75 20.4405 1.75 13.9996C1.75 7.55873 7.245 2.31836 14 2.31836C20.755 2.31836 26.25 7.55873 26.25 13.9996C26.2475 16.7858 25.214 19.4725 23.3485 21.5421L24.0485 22.2421C24.3299 22.5236 24.5215 22.8822 24.5991 23.2726C24.6766 23.663 24.6367 24.0676 24.4843 24.4353C24.3319 24.803 24.0739 25.1173 23.743 25.3384C23.412 25.5594 23.0229 25.6774 22.6249 25.6774L22.6284 25.6809ZM14 4.06836C8.21012 4.06836 3.5 8.52386 3.5 13.9996C3.5 19.4754 8.21012 23.9309 14 23.9309H22.6284C22.6803 23.931 22.7312 23.9157 22.7744 23.8869C22.8177 23.8581 22.8514 23.8172 22.8714 23.7692C22.8913 23.7212 22.8966 23.6684 22.8865 23.6174C22.8764 23.5665 22.8515 23.5196 22.8147 23.4829L21.5022 22.1704C21.4202 22.0883 21.3553 21.9907 21.3113 21.8834C21.2673 21.776 21.2451 21.6609 21.246 21.5449C21.2469 21.4289 21.2709 21.3142 21.3165 21.2075C21.3622 21.1008 21.4286 21.0043 21.5119 20.9235C22.4513 20.0307 23.2003 18.957 23.7138 17.767C24.2273 16.5771 24.4948 15.2956 24.5 13.9996C24.5 8.52386 19.7899 4.06836 14 4.06836Z" fill="#7D3CF3"/>
<path d="M15.3125 19.25H12.6875C12.4554 19.25 12.2329 19.1578 12.0688 18.9937C11.9047 18.8296 11.8125 18.6071 11.8125 18.375C11.8125 18.1429 11.9047 17.9204 12.0688 17.7563C12.2329 17.5922 12.4554 17.5 12.6875 17.5H15.3125C15.5446 17.5 15.7671 17.5922 15.9312 17.7563C16.0953 17.9204 16.1875 18.1429 16.1875 18.375C16.1875 18.6071 16.0953 18.8296 15.9312 18.9937C15.7671 19.1578 15.5446 19.25 15.3125 19.25Z" fill="#7D3CF3"/>
<path d="M14 19.25C13.7679 19.25 13.5453 19.1578 13.3812 18.9937C13.2171 18.8296 13.125 18.6071 13.125 18.375V13.0078C12.9582 12.9114 12.8278 12.7628 12.7541 12.5848C12.6804 12.4069 12.6675 12.2096 12.7173 12.0235C12.7672 11.8375 12.877 11.6731 13.0298 11.5558C13.1826 11.4386 13.3699 11.375 13.5625 11.375H14C14.232 11.375 14.4546 11.4672 14.6187 11.6313C14.7828 11.7954 14.875 12.0179 14.875 12.25V18.375C14.875 18.6071 14.7828 18.8296 14.6187 18.9937C14.4546 19.1578 14.232 19.25 14 19.25Z" fill="#7D3CF3"/>
<path d="M14 10.0625C14.7249 10.0625 15.3125 9.47487 15.3125 8.75C15.3125 8.02513 14.7249 7.4375 14 7.4375C13.2751 7.4375 12.6875 8.02513 12.6875 8.75C12.6875 9.47487 13.2751 10.0625 14 10.0625Z" fill="#7D3CF3"/>
</svg>
