<svg width="33" height="32" viewBox="0 0 33 32" fill="none" xmlns="http://www.w3.org/2000/svg">
<g clip-path="url(#clip0_8049_4166)">
<path d="M30.625 19.5231V0H2.375V19.5231H0.5V20.4992C0.5 23.1905 2.60281 25.38 5.1875 25.38H27.8125C30.3972 25.38 32.5 23.1905 32.5 20.4992V19.5231H30.625ZM4.25 1.95231H28.75V19.5231H4.25V1.95231ZM27.8125 23.4277H5.1875C3.96531 23.4277 2.92262 22.6116 2.53562 21.4754H30.4644C30.0774 22.6116 29.0347 23.4277 27.8125 23.4277Z" fill="white"/>
<path d="M8.0625 3.9043V9.76122H24.9375V3.9043H8.0625ZM23.0625 7.80891H9.9375V5.8566H23.0625V7.80891ZM8.0625 17.5704H13.6875V11.7135H8.0625V17.5704ZM9.9375 13.6658H11.8125V15.6181H9.9375V13.6658ZM15.5625 11.7135H24.9375V13.6658H15.5625V11.7135ZM15.5625 15.6181H24.9375V17.5704H15.5625V15.6181Z" fill="white"/>
</g>
<defs>
<clipPath id="clip0_8049_4166">
<rect width="32" height="32" fill="white" transform="translate(0.5)"/>
</clipPath>
</defs>
</svg>
