<svg width="64" height="64" viewBox="0 0 64 64" fill="none" xmlns="http://www.w3.org/2000/svg">
<path d="M56.6911 26.5683C56.6911 12.9158 45.6107 1.85134 31.9522 1.87724C18.2828 1.90302 7.30859 12.8993 7.30884 26.5686C7.30896 35.6789 12.2434 43.6363 19.5854 47.915C23.0412 49.9291 25.1387 53.6554 25.1387 57.6553V62.1228H38.8614V57.6556C38.8614 53.612 41.0364 49.9066 44.5198 47.8534C51.8037 43.5601 56.6911 35.6352 56.6911 26.5683Z" stroke="#C1C1C1" stroke-width="3.5" stroke-miterlimit="10" stroke-linecap="round" stroke-linejoin="round"/>
<path d="M32.0053 37.9508C32.0053 40.2033 33.8313 42.0294 36.0839 42.0294C38.2235 42.0294 39.977 40.3816 40.1476 38.2861C40.7269 38.5869 41.3702 38.7437 42.0229 38.7431C44.2754 38.7431 46.1015 36.9171 46.1015 34.6645C46.1015 33.4624 45.5814 32.3822 44.7541 31.6358C46.6349 30.645 47.9177 28.6721 47.9177 26.3987C47.9177 24.1252 46.6348 22.1524 44.7541 21.1617C45.5813 20.4152 46.1015 19.3349 46.1015 18.133C46.1015 15.8804 44.2755 14.0544 42.0229 14.0544C41.3702 14.0537 40.7269 14.2105 40.1476 14.5114C39.977 12.4159 38.2235 10.7681 36.0839 10.7681C33.8314 10.7681 32.0053 12.5942 32.0053 14.8467M24.3057 53.3537H39.6942M16.0822 26.3985C16.0822 24.125 17.365 22.1522 19.2457 21.1614C18.4185 20.4149 17.8983 19.3347 17.8983 18.1328C17.8983 15.8801 19.7244 14.0541 21.9769 14.0541C22.6296 14.0535 23.2729 14.2103 23.8522 14.5112C24.0228 12.4156 25.7763 10.7678 27.9159 10.7678C30.1684 10.7678 31.9945 12.5939 31.9945 14.8464V37.9509C31.9945 40.2034 30.1684 42.0295 27.9159 42.0295C25.7763 42.0295 24.0228 40.3817 23.8522 38.2862C23.2729 38.5871 22.6296 38.7438 21.9769 38.7432C19.7244 38.7432 17.8983 36.9172 17.8983 34.6646C17.8983 33.4626 18.4184 32.3823 19.2457 31.636C17.365 30.6448 16.0822 28.672 16.0822 26.3985Z" stroke="#C1C1C1" stroke-width="3.5" stroke-miterlimit="10" stroke-linecap="round" stroke-linejoin="round"/>
</svg>
