<svg width="65" height="64" viewBox="0 0 65 64" fill="none" xmlns="http://www.w3.org/2000/svg">
<g clip-path="url(#clip0_7911_7522)">
<path d="M8.41396 43.9401C8.15664 44.0138 7.8843 44.0173 7.62518 43.9502C7.36605 43.8832 7.12959 43.748 6.94033 43.5587C6.75107 43.3695 6.61589 43.133 6.54883 42.8739C6.48177 42.6148 6.48527 42.3424 6.55896 42.0851L8.69146 34.6176C6.61967 30.8167 5.98708 26.3964 6.90963 22.1669C7.83218 17.9374 10.2481 14.1821 13.7145 11.5892C17.181 8.99625 21.4658 7.73943 25.7836 8.04906C30.1014 8.35868 34.163 10.214 37.224 13.275C40.2851 16.336 42.1404 20.3977 42.45 24.7155C42.7596 29.0333 41.5028 33.3181 38.9099 36.7846C36.317 40.251 32.5616 42.6669 28.3322 43.5894C24.1027 44.512 19.6824 43.8794 15.8815 41.8076L8.41396 43.9401Z" stroke="white" stroke-width="3" stroke-linecap="round" stroke-linejoin="round"/>
<path d="M23.5156 43.9723C24.3821 46.4322 25.7725 48.6746 27.5906 50.5444C29.4087 52.4143 31.6111 53.867 34.0457 54.8022C36.4802 55.7375 39.0889 56.1328 41.6912 55.9611C44.2936 55.7893 46.8276 55.0545 49.1181 53.8074L56.5856 55.9399C56.8429 56.0135 57.1153 56.017 57.3744 55.95C57.6335 55.8829 57.87 55.7477 58.0593 55.5585C58.2485 55.3692 58.3837 55.1328 58.4508 54.8736C58.5178 54.6145 58.5143 54.3422 58.4406 54.0849L56.3081 46.6174C57.7631 43.949 58.5186 40.9556 58.5044 37.9164C58.4902 34.8771 57.7066 31.891 56.2268 29.2363C54.747 26.5816 52.619 24.3449 50.0414 22.7346C47.4638 21.1244 44.5204 20.193 41.4856 20.0273" stroke="white" stroke-width="3" stroke-linecap="round" stroke-linejoin="round"/>
</g>
<defs>
<clipPath id="clip0_7911_7522">
<rect width="64" height="64" fill="white" transform="translate(0.5)"/>
</clipPath>
</defs>
</svg>
