<svg width="65" height="64" viewBox="0 0 65 64" fill="none" xmlns="http://www.w3.org/2000/svg">
<g clip-path="url(#clip0_8851_1814)">
<path d="M60.5065 46.2176C66.691 37.5405 65.7457 25.6524 57.2984 17.9085C53.4388 14.3704 48.5184 12.1677 43.2033 11.5526C43.1702 11.5113 43.1355 11.4713 43.0991 11.4329C38.4753 6.62975 31.8323 3.875 24.8735 3.875C11.6311 3.875 0.5 13.7416 0.5 26.375C0.5 30.8044 1.87588 35.0505 4.4895 38.7176L0.838375 50.1809C0.726117 50.5332 0.720551 50.9109 0.822376 51.2663C0.924202 51.6218 1.12887 51.9393 1.41064 52.1787C1.69242 52.4182 2.0387 52.569 2.40596 52.6121C2.77321 52.6553 3.14502 52.5889 3.47463 52.4212L14.578 46.7754C16.8583 47.7573 19.2763 48.4015 21.7803 48.6946C26.6105 53.7741 33.2894 56.375 40.1225 56.375C43.6745 56.375 47.2136 55.6511 50.4175 54.2752L61.5214 59.9214C61.7845 60.0553 62.0756 60.1251 62.3708 60.125C63.6362 60.125 64.5433 58.8919 64.1577 57.6809L60.5065 46.2176ZM15.3348 43.0026C15.0757 42.8796 14.7919 42.8176 14.5051 42.8215C14.2183 42.8254 13.9363 42.895 13.6806 43.025L5.77225 47.0462L8.35475 38.938C8.44738 38.6473 8.46764 38.3383 8.41377 38.0379C8.3599 37.7376 8.23353 37.4549 8.04563 37.2145C5.56238 34.0358 4.24975 30.2876 4.24975 26.375C4.24975 16.0363 13.5015 7.625 24.8735 7.625C29.453 7.625 33.8616 9.01237 37.4378 11.5107C25.3943 12.7217 15.749 22.1285 15.749 33.875C15.749 37.5285 16.6855 41.0457 18.4511 44.197C17.3832 43.8795 16.3413 43.4802 15.3348 43.0026ZM51.3154 50.5249C51.0598 50.3949 50.7777 50.3253 50.4909 50.3214C50.2042 50.3176 49.9203 50.3796 49.6613 50.5026C46.7381 51.8911 43.4398 52.625 40.1225 52.625C28.7505 52.625 19.4988 44.2137 19.4988 33.875C19.4988 23.5363 28.7505 15.125 40.1225 15.125C51.4945 15.125 60.7463 23.5363 60.7463 33.875C60.7463 37.7876 59.4337 41.5357 56.9503 44.7144C56.7624 44.9548 56.6361 45.2375 56.5822 45.5378C56.5284 45.8382 56.5486 46.1471 56.6412 46.4379L59.2237 54.5461L51.3154 50.5249Z" fill="#3D89FB"/>
<path d="M32.498 35.75C33.5336 35.75 34.3731 34.9105 34.3731 33.875C34.3731 32.8395 33.5336 32 32.498 32C31.4625 32 30.623 32.8395 30.623 33.875C30.623 34.9105 31.4625 35.75 32.498 35.75Z" fill="#3D89FB"/>
<path d="M39.9976 35.75C41.0331 35.75 41.8726 34.9105 41.8726 33.875C41.8726 32.8395 41.0331 32 39.9976 32C38.962 32 38.1226 32.8395 38.1226 33.875C38.1226 34.9105 38.962 35.75 39.9976 35.75Z" fill="#3D89FB"/>
<path d="M47.4972 35.75C48.5327 35.75 49.3722 34.9105 49.3722 33.875C49.3722 32.8395 48.5327 32 47.4972 32C46.4617 32 45.6222 32.8395 45.6222 33.875C45.6222 34.9105 46.4617 35.75 47.4972 35.75Z" fill="#3D89FB"/>
</g>
<defs>
<clipPath id="clip0_8851_1814">
<rect width="64" height="64" fill="white" transform="translate(0.5)"/>
</clipPath>
</defs>
</svg>
