<svg width="28" height="28" viewBox="0 0 28 28" fill="none" xmlns="http://www.w3.org/2000/svg">
<path fill-rule="evenodd" clip-rule="evenodd" d="M27.125 5.425C27.125 4.91487 26.922 4.42488 26.5615 4.0635C26.2001 3.70294 25.7105 3.50031 25.2 3.5H2.8C2.28988 3.5 1.79988 3.703 1.4385 4.0635C1.07794 4.42491 0.87531 4.91449 0.875 5.425V22.575C0.875 23.0851 1.078 23.5751 1.4385 23.9365C1.79988 24.297 2.28988 24.5 2.8 24.5H25.2C25.7101 24.5 26.2001 24.297 26.5615 23.9365C26.922 23.5751 27.125 23.0851 27.125 22.575V5.425ZM2.625 8.75V22.575C2.625 22.6214 2.64338 22.666 2.67663 22.6984C2.69271 22.7148 2.71191 22.7278 2.7331 22.7366C2.75429 22.7455 2.77703 22.75 2.8 22.75H25.2C25.223 22.75 25.2457 22.7455 25.2669 22.7366C25.2881 22.7278 25.3073 22.7148 25.3234 22.6984C25.3398 22.6823 25.3528 22.6631 25.3616 22.6419C25.3705 22.6207 25.375 22.598 25.375 22.575V9.625H19.4976C19.1993 9.625 18.9044 9.555 18.6366 9.422L17.3302 8.76837C17.3061 8.75623 17.2794 8.74993 17.2524 8.75H2.625ZM25.375 7.875V5.425C25.375 5.40203 25.3705 5.37929 25.3616 5.3581C25.3528 5.33691 25.3398 5.31771 25.3234 5.30163C25.3073 5.28523 25.2881 5.27222 25.2669 5.26336C25.2457 5.25449 25.223 5.24995 25.2 5.25H2.8C2.77703 5.24995 2.75429 5.25449 2.7331 5.26336C2.71191 5.27222 2.69271 5.28523 2.67663 5.30163C2.66023 5.31771 2.64722 5.33691 2.63836 5.3581C2.62949 5.37929 2.62495 5.40203 2.625 5.425V7H17.2524C17.5507 7 17.8456 7.07 18.1134 7.203L19.4198 7.85663C19.4439 7.86877 19.4706 7.87507 19.4976 7.875H25.375Z" fill="#7D3CF3"/>
<path fill-rule="evenodd" clip-rule="evenodd" d="M7.95024 14.4375L7.25636 15.1314C7.09698 15.2964 7.00878 15.5174 7.01078 15.7468C7.01277 15.9763 7.10479 16.1957 7.26702 16.358C7.42926 16.5202 7.64872 16.6122 7.87814 16.6142C8.10756 16.6162 8.32859 16.528 8.49361 16.3686L9.18749 15.6747L9.88137 16.3686C10.0464 16.528 10.2674 16.6162 10.4968 16.6142C10.7263 16.6122 10.9457 16.5202 11.108 16.358C11.2702 16.1957 11.3622 15.9763 11.3642 15.7468C11.3662 15.5174 11.278 15.2964 11.1186 15.1314L10.4247 14.4375L11.1186 13.7436C11.278 13.5786 11.3662 13.3576 11.3642 13.1281C11.3622 12.8987 11.2702 12.6793 11.108 12.517C10.9457 12.3548 10.7263 12.2628 10.4968 12.2608C10.2674 12.2588 10.0464 12.347 9.88137 12.5064L9.18749 13.2002L8.49361 12.5064C8.32859 12.347 8.10756 12.2588 7.87814 12.2608C7.64872 12.2628 7.42926 12.3548 7.26702 12.517C7.10479 12.6793 7.01277 12.8987 7.01078 13.1281C7.00878 13.3576 7.09698 13.5786 7.25636 13.7436L7.95024 14.4375ZM17.5752 14.4375L16.8814 15.1314C16.722 15.2964 16.6338 15.5174 16.6358 15.7468C16.6378 15.9763 16.7298 16.1957 16.892 16.358C17.0543 16.5202 17.2737 16.6122 17.5031 16.6142C17.7326 16.6162 17.9536 16.528 18.1186 16.3686L18.8125 15.6747L19.5064 16.3686C19.6714 16.528 19.8924 16.6162 20.1218 16.6142C20.3513 16.6122 20.5707 16.5202 20.733 16.358C20.8952 16.1957 20.9872 15.9763 20.9892 15.7468C20.9912 15.5174 20.903 15.2964 20.7436 15.1314L20.0497 14.4375L20.7436 13.7436C20.903 13.5786 20.9912 13.3576 20.9892 13.1281C20.9872 12.8987 20.8952 12.6793 20.733 12.517C20.5707 12.3548 20.3513 12.2628 20.1218 12.2608C19.8924 12.2588 19.6714 12.347 19.5064 12.5064L18.8125 13.2002L18.1186 12.5064C17.9536 12.347 17.7326 12.2588 17.5031 12.2608C17.2737 12.2628 17.0543 12.3548 16.892 12.517C16.7298 12.6793 16.6378 12.8987 16.6358 13.1281C16.6338 13.3576 16.722 13.5786 16.8814 13.7436L17.5752 14.4375ZM10.1089 20.0322L11.389 20.6727C11.9306 20.944 12.5694 20.944 13.111 20.6727L13.9221 20.2676C13.9463 20.2556 13.973 20.2493 14 20.2493C14.027 20.2493 14.0537 20.2556 14.0779 20.2676L14.889 20.6727C15.4306 20.944 16.0694 20.944 16.611 20.6727L17.8911 20.0322C17.9975 19.9831 18.0929 19.9131 18.1717 19.8264C18.2505 19.7396 18.3111 19.638 18.3499 19.5274C18.3887 19.4168 18.4048 19.2996 18.3974 19.1826C18.39 19.0657 18.3592 18.9514 18.3068 18.8466C18.2544 18.7418 18.1815 18.6486 18.0924 18.5725C18.0032 18.4964 17.8997 18.439 17.788 18.4036C17.6763 18.3683 17.5586 18.3558 17.4419 18.3668C17.3253 18.3778 17.212 18.4121 17.1089 18.4677L15.8279 19.1074C15.8037 19.1194 15.777 19.1256 15.75 19.1256C15.723 19.1256 15.6963 19.1194 15.6721 19.1074L14.861 18.7022C14.5937 18.5685 14.2989 18.4989 14 18.4989C13.7011 18.4989 13.4063 18.5685 13.139 18.7022L12.3279 19.1074C12.3037 19.1194 12.277 19.1256 12.25 19.1256C12.223 19.1256 12.1963 19.1194 12.1721 19.1074L10.8911 18.4677C10.788 18.4121 10.6747 18.3778 10.558 18.3668C10.4414 18.3558 10.3237 18.3683 10.212 18.4036C10.1002 18.439 9.99674 18.4964 9.90763 18.5725C9.81851 18.6486 9.74559 18.7418 9.69318 18.8466C9.64078 18.9514 9.60996 19.0657 9.60255 19.1826C9.59515 19.2996 9.61131 19.4168 9.65008 19.5274C9.68885 19.638 9.74944 19.7396 9.82825 19.8264C9.90706 19.9131 10.0025 19.9831 10.1089 20.0322Z" fill="#7D3CF3"/>
</svg>
