<svg width="40" height="40" viewBox="0 0 40 40" fill="none" xmlns="http://www.w3.org/2000/svg">
<g clip-path="url(#clip0_7896_2500)">
<path d="M3.53711 23.2109L16.7148 31.456C18.7394 32.7228 21.2573 32.7228 23.282 31.456L36.4596 23.2109" stroke="#3D89FB" stroke-width="2.8" stroke-miterlimit="10" stroke-linecap="round" stroke-linejoin="round"/>
<path d="M3.53711 16.7881L16.7148 25.0331C18.7394 26.3 21.2573 26.3 23.282 25.0331L36.4596 16.7881" stroke="#3D89FB" stroke-width="2.8" stroke-miterlimit="10" stroke-linecap="round" stroke-linejoin="round"/>
<path d="M3.95508 10.6271L16.7154 18.611C18.7401 19.8779 21.2579 19.8779 23.2826 18.611L36.0429 10.6271" stroke="#3D89FB" stroke-width="2.8" stroke-miterlimit="10" stroke-linecap="round" stroke-linejoin="round"/>
<path d="M3.53723 12.2985C3.53723 11.1006 4.13568 9.99164 5.11163 9.38101L16.7148 2.12104C18.7395 0.854184 21.2573 0.854184 23.282 2.12104L34.8853 9.38101C35.8612 9.99164 36.4597 11.1006 36.4597 12.2985V27.7011C36.4597 28.899 35.8612 30.008 34.8853 30.6186L23.282 37.8786C21.2573 39.1454 18.7395 39.1454 16.7148 37.8786L5.11163 30.6186C4.13568 30.008 3.53723 28.899 3.53723 27.7011V12.2985Z" stroke="#3D89FB" stroke-width="2.8" stroke-miterlimit="10" stroke-linecap="round" stroke-linejoin="round"/>
</g>
<defs>
<clipPath id="clip0_7896_2500">
<rect width="40" height="40" fill="white"/>
</clipPath>
</defs>
</svg>
