<svg width="29" height="28" viewBox="0 0 29 28" fill="none" xmlns="http://www.w3.org/2000/svg">
<g clip-path="url(#clip0_8049_2741)">
<path d="M28.4537 22.4753L25.8333 7.61484C25.6529 6.59137 24.9708 5.74568 24.0087 5.3527L17.7561 2.79865C17.49 2.69016 17.2096 2.62075 16.9236 2.59259L16.586 0.678043C16.5074 0.231905 16.0822 -0.0659215 15.6358 0.012664C15.1896 0.0913041 14.8917 0.51677 14.9704 0.962908L15.308 2.87767C15.0528 3.00028 14.8164 3.15866 14.606 3.34803L13.8978 3.98585L13.7928 3.89059C13.5798 3.69761 13.3401 3.53647 13.0809 3.41218L13.5128 0.962908C13.5915 0.51677 13.2936 0.0913041 12.8474 0.012664C12.4014 -0.0662496 11.9758 0.23185 11.8972 0.678043L11.4653 3.12748C11.1835 3.15543 10.9072 3.22343 10.6446 3.32944L4.33571 5.87901C3.36791 6.27013 2.68186 7.11735 2.50057 8.14541L0.545993 19.2306C0.258011 20.864 1.35252 22.427 2.98581 22.715L10.9745 24.1236L11.2197 25.5142C11.4766 26.9716 12.7488 28 14.1803 28C14.353 28 14.5282 27.985 14.7041 27.954L26.0139 25.9598C27.6472 25.6717 28.7417 24.1087 28.4537 22.4753ZM25.729 24.344L14.4191 26.3382C14.0595 26.4016 13.6967 26.3212 13.3975 26.1117C13.0984 25.9023 12.8987 25.5888 12.8353 25.2292L12.6938 24.4268L14.2956 24.7092C14.4701 24.7401 14.647 24.7556 14.8242 24.7557C15.4357 24.7557 16.0317 24.569 16.543 24.211C17.2012 23.7502 17.6404 23.0606 17.7799 22.2695L19.7355 11.1789C19.916 10.1554 19.5642 9.12743 18.7946 8.42913L15.1188 5.09392L15.7037 4.56718C15.9583 4.33793 16.2883 4.21701 16.6217 4.21701C16.7955 4.21701 16.9702 4.24994 17.1356 4.31747L23.3882 6.87153C23.8255 7.05019 24.1356 7.43453 24.2176 7.89976L26.8379 22.7602C26.9689 23.5026 26.4714 24.2131 25.729 24.344ZM2.16162 19.5155L4.1163 8.43028C4.19871 7.96298 4.51054 7.57787 4.95044 7.40008L11.1538 4.89311L10.976 5.90154C10.8974 6.34768 11.1953 6.77315 11.6414 6.85179C11.6896 6.86032 11.7375 6.86437 11.7848 6.86437C12.1754 6.86437 12.5215 6.58431 12.5917 6.18635L12.7696 5.17754L17.6922 9.64411C18.042 9.96152 18.2019 10.4288 18.1199 10.894L16.1643 21.9845C16.1009 22.3442 15.9012 22.6576 15.6021 22.867C15.3029 23.0765 14.9402 23.1569 14.5805 23.0935L3.27062 21.0993C2.52824 20.9684 2.03075 20.2579 2.16162 19.5155Z" fill="#7D3CF3"/>
<path d="M8.76372 19.0779L8.63275 19.8207C8.5803 20.1181 8.77893 20.4017 9.07637 20.4542C9.10847 20.4599 9.14041 20.4625 9.17196 20.4625C9.43233 20.4625 9.66311 20.2758 9.70987 20.0106L9.84812 19.2267C10.4101 19.2249 10.9466 19.0687 11.4226 18.7646C11.9892 18.4025 12.4254 17.8535 12.6507 17.2186C13.1096 15.926 12.6164 14.6447 11.3945 13.9543C11.2067 13.8484 11.0202 13.74 10.8351 13.6293L11.3815 10.5306C11.7656 10.6721 11.9866 10.9051 12.1338 11.0606C12.1757 11.1048 12.2153 11.1466 12.2557 11.184C12.4775 11.3891 12.8235 11.3754 13.0285 11.1537C13.2335 10.932 13.22 10.586 12.9982 10.381C12.9845 10.3683 12.9558 10.338 12.928 10.3087C12.7297 10.0992 12.3153 9.66149 11.5732 9.44362L11.6861 8.80302C11.7385 8.50557 11.5399 8.22196 11.2425 8.16952C10.945 8.11713 10.6614 8.31564 10.609 8.61314L10.4847 9.318C10.372 9.32222 10.2555 9.33064 10.1337 9.34507C9.23343 9.45188 8.46535 10.0717 8.12913 10.9627C7.82354 11.7726 7.94796 12.6261 8.45387 13.1901C8.73616 13.5049 9.10486 13.8124 9.6303 14.1632L8.95365 18.0006C8.421 17.8779 8.09632 17.7059 7.57548 17.217C7.35531 17.0102 7.0092 17.0211 6.80248 17.2414C6.59576 17.4615 6.60664 17.8076 6.82687 18.0144C7.53578 18.6797 8.04989 18.9189 8.76372 19.0779ZM11.62 16.8527C11.4066 17.4539 10.8435 18.0354 10.043 18.1216L10.6324 14.7788C10.705 14.8206 10.7797 14.8632 10.8564 14.9066C11.9805 15.5417 11.7251 16.5568 11.62 16.8527ZM9.26805 12.4598C9.03585 12.2009 8.99155 11.7752 9.15244 11.3488C9.3025 10.9511 9.67295 10.5012 10.2625 10.4312C10.2715 10.4302 10.28 10.4295 10.2888 10.4285L9.84041 12.9717C9.60109 12.7903 9.41417 12.6226 9.26805 12.4598Z" fill="#7D3CF3"/>
</g>
<defs>
<clipPath id="clip0_8049_2741">
<rect width="28" height="28" fill="white" transform="translate(0.5)"/>
</clipPath>
</defs>
</svg>
