<svg width="94" height="71" viewBox="0 0 94 71" fill="none" xmlns="http://www.w3.org/2000/svg">
<path d="M43.3552 52.6907C43.4646 55.1739 43.0117 57.65 42.0288 59.9429C41.0459 62.2358 39.5571 64.289 37.6685 65.9564L37.6536 65.9681C33.7441 69.3511 28.6527 71.1396 23.4309 70.9642L23.4637 70.9642C20.3074 71.1308 17.1523 70.617 14.2224 69.4593C11.2925 68.3016 8.65972 66.5284 6.51115 64.2658L6.49921 64.2541C2.19175 59.2655 -0.00529553 52.8621 0.355543 46.3479L0.352552 46.4091C0.152374 39.6442 1.44073 32.916 4.13075 26.6782L4.01127 26.9901C6.15911 22.1001 9.13797 17.5994 12.8221 13.6778L12.7892 13.7128C15.8344 10.4886 19.363 7.73385 23.2547 5.54236L23.4697 5.43159C26.413 3.77442 29.4848 2.34467 32.6568 1.15544L33.1228 1.00095L42.4831 16.4207C38.5934 17.9524 35.1792 20.4457 32.5762 23.6555L32.5374 23.705C29.9455 26.7182 28.3198 30.4093 27.8632 34.3182L27.8542 34.4114C29.891 34.4612 31.8941 34.9305 33.7321 35.7885C35.5701 36.6465 37.2016 37.8738 38.5197 39.3901L38.5377 39.4105C41.8891 43.0524 43.6228 47.8433 43.3582 52.7315L43.3612 52.6878L43.3552 52.6907ZM93.974 52.6907C94.0817 55.174 93.6278 57.6499 92.6445 59.9426C91.6611 62.2353 90.1725 64.2885 88.2843 65.9564L88.2694 65.9681C84.3607 69.3524 79.2687 71.1411 74.0467 70.9642L74.0795 70.9642C70.9231 71.1316 67.7677 70.6181 64.8377 69.4604C61.9077 68.3027 59.275 66.5291 57.127 64.2658L57.115 64.2512C52.8058 59.2625 50.6085 52.8574 50.9713 46.3421L50.9684 46.4033C50.7682 39.6384 52.0565 32.9102 54.7465 26.6724L54.6271 26.9843C56.7739 22.0944 59.7517 17.5936 63.4349 13.672L63.402 13.707C66.4483 10.4827 69.9779 7.72795 73.8705 5.53652L74.0855 5.42575C77.0282 3.76742 80.1001 2.33763 83.2726 1.14961L83.7386 0.995118L93.0959 16.4149C89.2057 17.9484 85.7915 20.4437 83.189 23.6555L83.1502 23.705C80.5583 26.7182 78.9327 30.4093 78.476 34.3182L78.467 34.4114C80.503 34.4609 82.5053 34.9301 84.3424 35.7881C86.1795 36.6462 87.8099 37.8737 89.1266 39.3901L89.1445 39.4105C92.4995 43.0496 94.2367 47.84 93.974 52.7286L93.977 52.6849L93.974 52.6907Z" fill="white"/>
</svg>
