<svg width="80" height="80" viewBox="0 0 80 80" fill="none" xmlns="http://www.w3.org/2000/svg">
<g clip-path="url(#clip0_7839_5162)">
<mask id="mask0_7839_5162" style="mask-type:luminance" maskUnits="userSpaceOnUse" x="0" y="0" width="80" height="80">
<path d="M77.9998 78V2.00024H2V78H77.9998Z" fill="white" stroke="white" stroke-width="4"/>
</mask>
<g mask="url(#mask0_7839_5162)">
<path d="M3.91571 76.0844C1.82009 73.9888 1.82009 70.5911 3.91571 68.4957L17.6446 54.7667C19.7402 52.671 23.1378 52.671 25.2335 54.7667C27.3291 56.8623 27.3291 60.2599 25.2335 62.3556L11.5044 76.0844C9.40897 78.18 6.01133 78.18 3.91571 76.0844Z" stroke="#F3D465" stroke-width="4" stroke-miterlimit="10" stroke-linecap="round"/>
<path d="M25.2334 54.7668L33.881 46.1194" stroke="#F3D465" stroke-width="4" stroke-miterlimit="10"/>
<path d="M70.1455 46.1194C80.1596 36.1052 80.1596 19.869 70.1455 9.85479C60.1313 -0.159555 43.8951 -0.159555 33.8809 9.85479C23.8665 19.869 23.8665 36.1052 33.8809 46.1194C43.8951 56.1336 60.1313 56.1336 70.1455 46.1194Z" stroke="#F3D465" stroke-width="4" stroke-miterlimit="10" stroke-linecap="round"/>
<path d="M40.1382 37.9873V30.4865" stroke="#F3D465" stroke-width="4" stroke-miterlimit="10" stroke-linecap="round"/>
<path d="M47.9507 37.9873V22.6741" stroke="#F3D465" stroke-width="4" stroke-miterlimit="10" stroke-linecap="round"/>
<path d="M55.7629 37.9873V25.7991" stroke="#F3D465" stroke-width="4" stroke-miterlimit="10" stroke-linecap="round"/>
<path d="M63.5754 37.9873V17.9866" stroke="#F3D465" stroke-width="4" stroke-miterlimit="10" stroke-linecap="round"/>
</g>
</g>
<defs>
<clipPath id="clip0_7839_5162">
<rect width="80" height="80" fill="white"/>
</clipPath>
</defs>
</svg>
