<svg width="80" height="66" viewBox="0 0 80 66" fill="none" xmlns="http://www.w3.org/2000/svg">
<path d="M79.5423 38.2339L65.0302 23.7217C64.42 23.1117 63.4306 23.1117 62.8203 23.7217C62.2101 24.3319 62.2101 25.3213 62.8203 25.9316L74.3409 37.452H46.8683C44.5892 37.452 42.7353 35.598 42.7353 33.3191V5.84656L53.8577 16.9688C54.4678 17.5788 55.4572 17.5788 56.0675 16.9688C56.6777 16.3586 56.6777 15.3692 56.0675 14.7589L41.9534 0.645C41.3433 0.035 40.3539 0.035 39.7437 0.645L14.8344 25.5548C14.2242 26.165 14.2242 27.1544 14.8344 27.7647L52.4233 65.3534C52.7163 65.6464 53.1137 65.811 53.5281 65.811C53.9425 65.811 54.3399 65.6464 54.633 65.3534L79.5425 40.4438C79.8354 40.1506 80 39.7532 79.9999 39.3388C79.9999 38.9244 79.8353 38.527 79.5423 38.2339ZM39.6106 5.19797V25.0973H19.7112L39.6106 5.19797ZM51.9656 60.4763L19.7112 28.2222H39.6106V33.3191C39.6106 37.3211 42.8666 40.577 46.8686 40.577H51.9656V60.4763ZM55.0905 60.4764V40.577H74.9897L55.0905 60.4764ZM10.7236 32.6867H1.5625C0.699531 32.6867 0 33.3864 0 34.2492C0 35.112 0.699531 35.8117 1.5625 35.8117H10.7236C11.5866 35.8117 12.2861 35.1122 12.2861 34.2492C12.2861 33.3864 11.5866 32.6867 10.7236 32.6867ZM15.3822 32.6867H15.3587C14.4958 32.6867 13.7962 33.3864 13.7962 34.2492C13.7962 35.112 14.4958 35.8117 15.3587 35.8117H15.3822C16.2452 35.8117 16.9447 35.112 16.9447 34.2492C16.9447 33.3864 16.2452 32.6867 15.3822 32.6867ZM6.565 16.2809H1.56453C0.701562 16.2809 0.00203125 16.9806 0.00203125 17.8434C0.00203125 18.7063 0.701562 19.4059 1.56453 19.4059H6.565C7.42797 19.4059 8.1275 18.7063 8.1275 17.8434C8.1275 16.9806 7.42797 16.2809 6.565 16.2809ZM17.5797 16.2809H11.6691C10.8061 16.2809 10.1066 16.9806 10.1066 17.8434C10.1066 18.7063 10.8061 19.4059 11.6691 19.4059H17.5797C18.4427 19.4059 19.1422 18.7063 19.1422 17.8434C19.1422 16.9806 18.4427 16.2809 17.5797 16.2809ZM20.9816 41.2803H12.2317C11.3687 41.2803 10.6692 41.98 10.6692 42.8428C10.6692 43.7056 11.3687 44.4053 12.2317 44.4053H20.9816C21.8445 44.4053 22.5441 43.7056 22.5441 42.8428C22.5441 41.98 21.8444 41.2803 20.9816 41.2803ZM27.8137 51.28H5.78266C4.91969 51.28 4.22016 51.9797 4.22016 52.8425C4.22016 53.7053 4.91969 54.405 5.78266 54.405H27.8137C28.6767 54.405 29.3762 53.7053 29.3762 52.8425C29.3762 51.9797 28.6767 51.28 27.8137 51.28Z" fill="white"/>
</svg>
