<svg width="64" height="64" viewBox="0 0 64 64" fill="none" xmlns="http://www.w3.org/2000/svg">
<path d="M54.8 35.1999V46.3999C54.8 50.8182 51.2183 54.3999 46.8 54.3999H18C13.5817 54.3999 10 50.8182 10 46.3999V17.5999C10 13.1816 13.5817 9.5999 18 9.5999H27.6V6.3999H18C11.8144 6.3999 6.80005 11.4143 6.80005 17.5999V46.3999C6.80005 52.5855 11.8144 57.5999 18 57.5999H46.8C52.9856 57.5999 58 52.5855 58 46.3999V35.1999H54.8Z" fill="#C1C1C1"/>
<path d="M24.4 47.9999H27.6V35.1999C27.6 22.6239 38.352 22.3999 38.8 22.3999H49.344L40.88 30.8639L43.136 33.1199L54.336 21.9199C54.9564 21.2958 54.9564 20.288 54.336 19.6639L43.136 8.46387L40.864 10.7359L49.344 19.1999H38.8C38.656 19.1999 24.4 19.3759 24.4 35.1999V47.9999Z" fill="#C1C1C1"/>
</svg>
