<svg width="44" height="44" viewBox="0 0 44 44" fill="none" xmlns="http://www.w3.org/2000/svg">
<path d="M28.0342 25.6847C31.0997 23.5787 35.9467 22.8221 44 22C35.8386 21.1648 30.9687 20.4017 27.9098 18.2302C28.758 16.4484 30.1859 14.4243 32.1968 11.8401C32.3475 11.6469 32.092 11.3979 31.902 11.5519C29.3999 13.5989 27.4284 15.0695 25.686 15.9669C23.5802 12.9013 22.8237 8.05389 22.0016 0C21.1665 8.16198 20.4001 13.0323 18.2288 16.0914C16.4472 15.2431 14.4232 13.8151 11.8392 11.8041C11.646 11.6534 11.3971 11.9089 11.551 12.0989C13.6012 14.5979 15.0684 16.5696 15.9658 18.3153C12.9003 20.4213 8.05329 21.1779 0 22C8.16137 22.8352 13.0313 23.5983 16.0902 25.7698C15.242 27.5516 13.8141 29.5757 11.8032 32.1599C11.6525 32.3531 11.908 32.6021 12.098 32.4481C14.6001 30.4011 16.5716 28.9305 18.314 28.033C20.4198 31.0987 21.1763 35.9461 21.9984 44C22.8335 35.838 23.5966 30.9677 25.7679 27.9086C27.5495 28.7569 29.5735 30.1849 32.1575 32.1959C32.3507 32.3466 32.5996 32.0911 32.4457 31.9011C30.3988 29.4021 28.9283 27.4304 28.0342 25.6847Z" fill="white"/>
</svg>
