<svg width="40" height="40" viewBox="0 0 40 40" fill="none" xmlns="http://www.w3.org/2000/svg">
<g clip-path="url(#clip0_7896_2509)">
<path d="M19.9991 28.0343C24.4039 28.0343 27.9747 24.4413 27.9747 20.0093C27.9747 15.5772 24.4039 11.9843 19.9991 11.9843C15.5942 11.9843 12.0234 15.5772 12.0234 20.0093C12.0234 24.4413 15.5942 28.0343 19.9991 28.0343Z" stroke="#3D89FB" stroke-width="2.6" stroke-miterlimit="10" stroke-linecap="round" stroke-linejoin="round"/>
<path d="M5.89648 19.953H12.0252L27.9765 20.0097H34.1052M25.6709 25.6528L29.9899 29.991M14.4866 25.8077L9.94977 30.3727" stroke="#3D89FB" stroke-width="2.6" stroke-miterlimit="10" stroke-linecap="round" stroke-linejoin="round"/>
<path d="M31.6587 34.045C32.9632 34.045 34.0206 32.981 34.0206 31.6685C34.0206 30.356 32.9632 29.292 31.6587 29.292C30.3543 29.292 29.2969 30.356 29.2969 31.6685C29.2969 32.981 30.3543 34.045 31.6587 34.045Z" stroke="#3D89FB" stroke-width="2.6" stroke-miterlimit="10" stroke-linecap="round" stroke-linejoin="round"/>
<path d="M20.0005 38.8283C21.305 38.8283 22.3624 37.7643 22.3624 36.4518C22.3624 35.1393 21.305 34.0753 20.0005 34.0753C18.6961 34.0753 17.6387 35.1393 17.6387 36.4518C17.6387 37.7643 18.6961 38.8283 20.0005 38.8283Z" stroke="#3D89FB" stroke-width="2.6" stroke-miterlimit="10" stroke-linecap="round" stroke-linejoin="round"/>
<path d="M8.43121 34.5635C9.73564 34.5635 10.7931 33.4995 10.7931 32.187C10.7931 30.8745 9.73564 29.8105 8.43121 29.8105C7.12678 29.8105 6.06934 30.8745 6.06934 32.187C6.06934 33.4995 7.12678 34.5635 8.43121 34.5635Z" stroke="#3D89FB" stroke-width="2.6" stroke-miterlimit="10" stroke-linecap="round" stroke-linejoin="round"/>
<path d="M3.53375 22.3292C4.83818 22.3292 5.89562 21.2652 5.89562 19.9527C5.89562 18.6402 4.83818 17.5762 3.53375 17.5762C2.22932 17.5762 1.17188 18.6402 1.17188 19.9527C1.17188 21.2652 2.22932 22.3292 3.53375 22.3292Z" stroke="#3D89FB" stroke-width="2.6" stroke-miterlimit="10" stroke-linecap="round" stroke-linejoin="round"/>
<path d="M36.4654 22.3858C37.7698 22.3858 38.8273 21.3218 38.8273 20.0093C38.8273 18.6968 37.7698 17.6328 36.4654 17.6328C35.161 17.6328 34.1035 18.6968 34.1035 20.0093C34.1035 21.3218 35.161 22.3858 36.4654 22.3858Z" stroke="#3D89FB" stroke-width="2.6" stroke-miterlimit="10" stroke-linecap="round" stroke-linejoin="round"/>
<path d="M20.0037 5.92468L19.9989 11.9842C19.9989 11.9842 13.345 19.424 19.9989 28.0342V34.0748M14.3366 14.3577L10.0146 10.009M25.5059 14.2044L30.0548 9.62734" stroke="#3D89FB" stroke-width="2.6" stroke-miterlimit="10" stroke-linecap="round" stroke-linejoin="round"/>
<path d="M8.34625 10.7082C9.65068 10.7082 10.7081 9.64418 10.7081 8.33168C10.7081 7.01919 9.65068 5.9552 8.34625 5.9552C7.04182 5.9552 5.98438 7.01919 5.98438 8.33168C5.98438 9.64418 7.04182 10.7082 8.34625 10.7082Z" stroke="#3D89FB" stroke-width="2.6" stroke-miterlimit="10" stroke-linecap="round" stroke-linejoin="round"/>
<path d="M20.0064 5.92484C21.3108 5.92484 22.3683 4.86086 22.3683 3.54836C22.3683 2.23586 21.3108 1.17188 20.0064 1.17188C18.702 1.17188 17.6445 2.23586 17.6445 3.54836C17.6445 4.86086 18.702 5.92484 20.0064 5.92484Z" stroke="#3D89FB" stroke-width="2.6" stroke-miterlimit="10" stroke-linecap="round" stroke-linejoin="round"/>
<path d="M31.5757 10.1905C32.8802 10.1905 33.9376 9.12648 33.9376 7.81398C33.9376 6.50149 32.8802 5.4375 31.5757 5.4375C30.2713 5.4375 29.2139 6.50149 29.2139 7.81398C29.2139 9.12648 30.2713 10.1905 31.5757 10.1905Z" stroke="#3D89FB" stroke-width="2.6" stroke-miterlimit="10" stroke-linecap="round" stroke-linejoin="round"/>
<path d="M20 11.998C20 11.998 26.6538 19.4378 20 28.048" stroke="#3D89FB" stroke-width="2.6" stroke-miterlimit="10" stroke-linecap="round" stroke-linejoin="round"/>
</g>
<defs>
<clipPath id="clip0_7896_2509">
<rect width="40" height="40" fill="white"/>
</clipPath>
</defs>
</svg>
