<svg width="80" height="80" viewBox="0 0 80 80" fill="none" xmlns="http://www.w3.org/2000/svg">
<path d="M72.1696 68.416H7.8304C4.6152 68.416 2 65.8 2 62.5856V17.4144C2 14.1992 4.616 11.584 7.8304 11.584H72.1696C75.3848 11.584 78 14.2 78 17.4144V62.5856C78 65.8008 75.384 68.416 72.1696 68.416ZM7.8304 15.2032C7.24415 15.2038 6.68209 15.437 6.26755 15.8515C5.853 16.2661 5.61984 16.8281 5.6192 17.4144V62.5856C5.61984 63.1718 5.853 63.7339 6.26755 64.1484C6.68209 64.563 7.24415 64.7962 7.8304 64.7968H72.1696C72.7559 64.7962 73.3179 64.563 73.7325 64.1484C74.147 63.7339 74.3802 63.1718 74.3808 62.5856V17.4144C74.3802 16.8281 74.147 16.2661 73.7325 15.8515C73.3179 15.437 72.7559 15.2038 72.1696 15.2032H7.8304Z" fill="#121215"/>
<path d="M3.80957 23.728H76.1904V27.3472H3.80957V23.728ZM50.8568 21.2752H48.78C48.3 21.2752 47.8398 21.0846 47.5004 20.7452C47.161 20.4058 46.9704 19.9455 46.9704 19.4656C46.9704 18.9857 47.161 18.5254 47.5004 18.186C47.8398 17.8467 48.3 17.656 48.78 17.656H50.8568C51.3367 17.656 51.797 17.8467 52.1364 18.186C52.4757 18.5254 52.6664 18.9857 52.6664 19.4656C52.6664 19.9455 52.4757 20.4058 52.1364 20.7452C51.797 21.0846 51.3367 21.2752 50.8568 21.2752ZM60.0392 21.2752H57.96C57.48 21.2752 57.0198 21.0846 56.6804 20.7452C56.341 20.4058 56.1504 19.9455 56.1504 19.4656C56.1504 18.9857 56.341 18.5254 56.6804 18.186C57.0198 17.8467 57.48 17.656 57.96 17.656H60.0384C60.5183 17.656 60.9786 17.8467 61.318 18.186C61.6573 18.5254 61.848 18.9857 61.848 19.4656C61.848 19.9455 61.6573 20.4058 61.318 20.7452C60.9786 21.0846 60.5183 21.2752 60.0384 21.2752H60.0392ZM69.22 21.2752H67.144C66.664 21.2752 66.2038 21.0846 65.8644 20.7452C65.525 20.4058 65.3344 19.9455 65.3344 19.4656C65.3344 18.9857 65.525 18.5254 65.8644 18.186C66.2038 17.8467 66.664 17.656 67.144 17.656H69.2208C69.7007 17.656 70.161 17.8467 70.5004 18.186C70.8397 18.5254 71.0304 18.9857 71.0304 19.4656C71.0304 19.9455 70.8397 20.4058 70.5004 20.7452C70.161 21.0846 69.6999 21.2752 69.22 21.2752Z" fill="#121215"/>
</svg>
